<?xml version="1.0" encoding="utf-8"?>
<!-- Generator: Adobe Illustrator 25.2.3, SVG Export Plug-In . SVG Version: 6.00 Build 0)  -->
<svg version="1.1" xmlns="http://www.w3.org/2000/svg" xmlns:xlink="http://www.w3.org/1999/xlink" x="0px" y="0px"
	 viewBox="0 0 841.89 1190.55" style="enable-background:new 0 0 841.89 1190.55;" xml:space="preserve">
<style type="text/css">
	.st0{fill:#FFFFFF;}
</style>
<g id="Layer_2">
	<polygon points="420.97,265.73 388.57,265.69 404.79,251.67 421,237.65 437.19,251.7 453.38,265.76 	"/>
	<polygon points="420.94,927.89 453.35,927.93 437.13,941.95 420.92,955.97 404.73,941.92 388.54,927.86 	"/>
	<polygon points="737.77,595.28 737.81,562.87 751.83,579.09 765.85,595.31 751.79,611.49 737.74,627.68 	"/>
	<polygon points="102.26,595.28 102.22,627.68 88.2,611.46 74.18,595.25 88.23,579.06 102.29,562.87 	"/>
	<ellipse transform="matrix(0.743 -0.6693 0.6693 0.743 -290.9699 435.8447)" cx="422.05" cy="596.81" rx="266.56" ry="131.1"/>
</g>
<g id="Layer_3">
	<polygon class="st0" points="384.96,595.27 371.11,577.82 302.61,491.55 323.96,474.6 407.6,579.93 418.39,593.53 419.78,595.28 	
		"/>
</g>
</svg>
