<svg width="50" height="50" xmlns="http://www.w3.org/2000/svg" viewBox="0 0 691.67 718.32"><g id="Layer_2" data-name="Layer 2"><polygon points="346.8 28.08 314.39 28.04 330.61 14.02 346.83 0 363.01 14.06 379.2 28.11 346.8 28.08" style="fill:#fff"/><polygon points="346.77 690.25 379.17 690.28 362.95 704.3 346.74 718.33 330.55 704.27 314.37 690.21 346.77 690.25" style="fill:#fff"/><polygon points="663.59 357.63 663.63 325.23 677.65 341.44 691.67 357.66 677.62 373.85 663.56 390.03 663.59 357.63" style="fill:#fff"/><polygon points="28.08 357.63 28.04 390.03 14.02 373.81 0 357.6 14.06 341.41 28.11 325.23 28.08 357.63" style="fill:#fff"/></g><g id="Layer_3" data-name="Layer 3"><path d="M620.1,418.41c-47.65-52.9-172.17-18.72-280.31,76.12l67.81,85.4,10.79,13.6,1.39,1.75H385l-13.85-17.45-51.42-64.76c-99.07,96-141.94,210.81-95.69,262.15,48.46,53.8,176.41,17.53,285.79-81S668.56,472.2,620.1,418.41Z" transform="translate(-74.18 -237.65)" style="fill:#fff"/></g></svg>