<svg width="24" height="24" id="Lag_1" data-name="Lag 1" xmlns="http://www.w3.org/2000/svg" viewBox="0 0 397.48 487.71"><path d="M269.88,537.71c9.65,0,9.67-15,0-15s-9.67,15,0,15Z" transform="translate(-222.5 -53.82)" style="fill:#7a7bb8"/><path d="M237.72,105.16c-.28-7.69-2.84-15.24-1.93-23h-5l0,22c0,3.21,5,3.22,5,0l0-22a2.5,2.5,0,0,0-5,0c-.91,7.74,1.65,15.28,1.93,23,.12,3.21,5.12,3.23,5,0Z" transform="translate(-222.5 -53.82)" style="fill:#e3e2e2"/><path d="M234.71,98.78a24.74,24.74,0,0,0-1.81-5c.14.33,0,.06-.05-.12s-.14-.35-.2-.52c-.16-.41-.3-.82-.42-1.24a9.86,9.86,0,0,1-.23-1c.1.58,0-.1,0-.2s0-.43,0-.65h-5c0,.58,0,1.15-.09,1.73q0,.5-.12,1c.07-.48,0,.23-.05.32-.18,1.19-.4,2.38-.58,3.57a20.11,20.11,0,0,0,.07,7.77c.68,2.74,4.94,2.15,4.91-.67,0-4.24.13-8.49.5-12.71l-4.91.66a17.86,17.86,0,0,0,3.94,7.09,2.52,2.52,0,0,0,3.54,0,2.56,2.56,0,0,0,0-3.53c-.21-.23-.41-.46-.6-.7.31.38-.14-.2-.16-.23a14.87,14.87,0,0,1-.85-1.37c-.11-.2-.22-.4-.32-.61s-.41-.93-.22-.45q-.28-.75-.51-1.53a2.51,2.51,0,0,0-2.74-1.79A2.53,2.53,0,0,0,226.65,91c-.37,4.22-.54,8.47-.5,12.71l4.92-.66c-.08-.32-.14-.64-.21-1,.1.49,0-.26,0-.3a13.79,13.79,0,0,1,0-1.7c0-.57.07-1.14.14-1.71,0-.09.1-.79,0-.31,0-.29.08-.58.13-.86A50,50,0,0,0,232,90a2.52,2.52,0,0,0-2.5-2.5A2.55,2.55,0,0,0,227,90a12.56,12.56,0,0,0,1.14,5.29c.22.51.43,1,.65,1.52l.22.52c-.2-.48,0,.13.09.23a14,14,0,0,1,.78,2.53,2.51,2.51,0,0,0,3.07,1.75,2.57,2.57,0,0,0,1.75-3.08Z" transform="translate(-222.5 -53.82)" style="fill:#7a7bb8"/><path d="M348.1,325.24a81.71,81.71,0,0,0,32.68,17.26c7,1.83,12.91-7.31,7.29-12.54l-32.19-30-10.6,10.6a135.77,135.77,0,0,0,31.06,21.52c5.58,2.8,13-1.85,11-8.47A64.51,64.51,0,0,0,379,305.91l-10.26,10.27,9.54,6.6c5.38,3.72,12.94-2.45,11-8.47a48.37,48.37,0,0,0-6-12.52l-11.78,9.09q19.9,18.75,41.21,35.91c7.39,5.95,17.31-3.37,10.61-10.61a94.52,94.52,0,0,0-50.14-28.34c-7.12-1.46-12.8,7-7.29,12.54q17.15,17.34,35.26,33.69l10.6-10.61c-12.21-10.95-25.25-22.1-41.82-25.32-6.82-1.33-13.27,7.13-7.3,12.53q19,17.24,36.89,35.71c10.38,10.78,20.6,21.43,34.92,26.77,7.34,2.73,12.19-7.5,7.3-12.54a193.89,193.89,0,0,1-28.89-38.27l-10.26,10.27A105.72,105.72,0,0,0,437.32,370c7,2.06,12.92-7.46,7.3-12.53l-17.3-15.62L420,354.42l8.85,2.77a7.49,7.49,0,0,0,8.85-4.34c1.56-3.72-.06-7.06-3.07-9.37l-10.06-7.7c-6.7-5.13-15.82,6.55-9.09,11.78l25.57,19.86c3.22,2.5,7.45,3.08,10.6,0a7.59,7.59,0,0,0,0-10.61l-5.69-5.5-9.08,11.78a208.79,208.79,0,0,1,31,25L477,376.29a578.14,578.14,0,0,1-55.72-29.81c-8.32-5.05-15.56,7.65-7.57,13,11.45,7.6,22.59,15.67,33.32,24.27l7.3-12.54-20.73-4.6c-5.78-1.29-12.57,5.33-8.46,11l12.72,17.63,8.47-11-4.93-1.1c-8.46-1.9-12.77,8.89-5.77,13.71,21.68,14.93,46.88,23.55,72.27,29.79,26.76,6.57,55.09,13.43,82.64,8,7.19-1.41,7.12-13,0-14.47-24-4.93-48.68-9.78-71-20.38-22.91-10.89-42.53-28.24-61.17-45.16l-10.6,10.61c20.68,18,41.84,36.35,67.25,47.43L520.86,399c-22.54-5.41-44.36-13.24-66.12-21.13-8.21-3-12.8,9.38-5.78,13.7l39.47,24.3,7.57-13a157.19,157.19,0,0,1-24.88-13.62L465.34,403a187,187,0,0,1,21.48,5.67c3.51,1.17,7,2.44,10.43,3.84,1.4.57,2.8,1.15,4.17,1.78.7.3,1.38.63,2.05,1q1.78,1.39-.32-1.56l11.28-6.48c-27-19.54-54.25-38.78-80.92-58.76C407.73,329.13,384,307.32,360.8,285c-13.5-13-26.87-26.08-40.28-39.14-6-5.85-16.27,1.67-11.78,9.09l9.49,15.69c5,8.24,18,.71,13-7.57l-9.5-15.69-11.78,9.09c23.58,23,46.91,46.23,71.42,68.2,24.93,22.35,51.73,42,78.82,61.63l46.71,33.83c4.78,3.46,11.23-1.24,11.29-6.48.1-10.39-11.59-13.64-19.5-16.69a183.43,183.43,0,0,0-29.32-8.5,7.54,7.54,0,0,0-5.78,13.71,158.05,158.05,0,0,0,24.88,13.63c8.64,3.76,16-7.76,7.57-13l-39.47-24.29-5.78,13.71c21.77,7.89,43.58,15.73,66.12,21.14,7.85,1.88,13.89-10.18,5.78-13.71-24.32-10.6-44.42-27.81-64.22-45.09-7.22-6.3-17.8,4.08-10.6,10.61,19.51,17.71,40.23,36.08,64.2,47.5,23.57,11.23,49.14,16.69,74.56,21.9V420.16c-25.17,4.93-52-2.37-76.37-8.46-23.66-5.9-46.76-13.93-67-27.85l-5.78,13.7,4.93,1.11c5.78,1.29,12.56-5.34,8.47-11L438.13,370l-8.47,11,20.72,4.61c6.63,1.47,13.59-7.5,7.3-12.54q-17.61-14.1-36.36-26.62l-7.57,13a578.06,578.06,0,0,0,55.72,29.8c7.33,3.41,15.58-5.47,9.09-11.78a229.16,229.16,0,0,0-34.08-27.32c-7.16-4.7-15.17,5.9-9.09,11.78l5.69,5.5,10.6-10.61L426.11,337,417,348.73l10.06,7.71,5.78-13.71L424,340c-7-2.21-12.85,7.51-7.29,12.53L434,368.1l7.3-12.53a94.51,94.51,0,0,1-31.08-15.92c-6.25-4.78-13.73,4.26-10.26,10.27a210.48,210.48,0,0,0,31.23,41.3l7.3-12.54c-12.71-4.74-21.77-16.21-30.95-25.64q-16.59-17-34.24-33L366,332.6c14.07,2.74,24.83,12.17,35.21,21.47,7.16,6.42,17.79-4.12,10.6-10.61q-18.09-16.35-35.26-33.69l-7.29,12.54a80.77,80.77,0,0,1,43.51,24.48l10.61-10.61q-21.3-17.15-41.21-35.91c-6-5.61-16.74,1.77-11.78,9.09a34.12,34.12,0,0,1,4.45,8.94l11-8.47-9.54-6.61c-6.11-4.23-14.4,4.16-10.26,10.27a50.76,50.76,0,0,1,6.82,14.14l11-8.47a121.52,121.52,0,0,1-28-19.17c-7.09-6.52-17.69,4-10.6,10.6l32.19,30L384.76,328a64.94,64.94,0,0,1-26.06-13.39c-7.3-6.24-18,4.32-10.6,10.6Z" transform="translate(-222.5 -53.82)" style="fill:#7a7bb8"/><path d="M419,321.53A118,118,0,0,0,467.92,359l4-14.46a8.9,8.9,0,0,1-4.1-1.41c-3.2-2.53-7.47-3.07-10.61,0-2.78,2.73-3,7.9,0,10.6,23.77,21.49,52.38,36.87,80.49,51.86,13,7,76,40.23,75.61,6.83l-1,3.78-.13.19-5.3,2.19.78,0-6.47-3.72.29.65V408l-.37.67,6.47-3.71-.59-.06,7.23,9.49c7.75-25.08-8.66-46.82-22.82-66l-11.78,9.09,3.76,3.59c6.11,5.83,16.09-1.58,11.78-9.09a489.79,489.79,0,0,0-68.07-91.76c-6.64-7.05-17.14,3.52-10.61,10.61l2.35,2.54c5.65,6.14,16.89-2.14,11.78-9.09a524.76,524.76,0,0,0-73.78-81.13c-5.14-4.58-15.25-.26-12.53,7.3a223.33,223.33,0,0,0,31.4,58.68l11.78-9.08a261.85,261.85,0,0,1-33.62-36.43L442,212.71a524.42,524.42,0,0,1,37.47,38.12l10.61-10.61q-27.44-21.61-53-45.47c-6.45-6-15.36,1.5-11.78,9.09a139.19,139.19,0,0,0,18.55,29l10.61-10.6q-11.43-12.09-21.82-25.08l-10.6,10.6A153.9,153.9,0,0,1,444,229.2l10.61-10.61-33-30.39c-6.19-5.71-16.05,1.5-11.78,9.09l36.27,64.36,11.78-9.09q-18.69-21.08-36.38-43c-5.5-6.82-15.74,1.88-11.78,9.09l20.39,37.07,13-7.57A266.69,266.69,0,0,0,419.4,220c-5.87-6-16.34,1.78-11.78,9.09a613.16,613.16,0,0,1,33.19,60.51l12.95-7.57c-13.78-18-25.09-37.62-36.3-57.26-4.9-8.58-16.78-1.05-13,7.57q23.61,53.17,49.88,105.12l11.78-9.09q-18.46-19.05-35.4-39.5l-10.61,10.61,13.18,14.87,10.61-10.61-31.41-32c-6.9-7-16.59,3.27-10.61,10.61a619.62,619.62,0,0,0,76.55,78.47,7.51,7.51,0,0,0,10.61-10.61c-15.05-17.72-30.59-36-39.29-57.82l-12.53,7.3a266.92,266.92,0,0,1,26,26.62c5.77,6.79,15.43-1.86,11.78-9.09L444.3,256.32l-11.78,9.09,34.53,31.21a7.53,7.53,0,0,0,11.77-9.09l-29.65-58.22-11.78,9.09q22.88,19.9,44.12,41.54c5.88,6,16.41-1.79,11.78-9.09a526.89,526.89,0,0,1-26.52-47l-10.26,10.26q19,13.91,36.52,29.58c7.16,6.38,17.5-3.73,10.61-10.61a445.81,445.81,0,0,1-30-33l-9.09,11.77,19.63,13.84c3,2.16,7.56.81,9.67-1.93,2.42-3.13,1.82-6.92-.58-9.85l-16.76-20.37c-5.35-6.5-16.95,2.3-11.78,9.09Q482,245.3,498.06,268.83c2.12,3.11,5.78,4.58,9.37,3.07,3.09-1.3,5.77-5.39,4.34-8.85L503,241.83l-12.53,7.3q35.82,42.12,68.88,86.5l11.78-9.09c-27.56-22.05-50.2-49.2-72.62-76.26-5.5-6.64-16,1.9-11.78,9.09l30.67,51.82,11.78-9.09a406.06,406.06,0,0,1-46.21-43.88c-2.73-3-7.82-2.73-10.61,0-3.19,3.12-2.46,7.42,0,10.6q16,20.67,33.41,40.15c5.67,6.34,16.31-1.89,11.78-9.09a559.26,559.26,0,0,1-33-60.31l-12.95,7.57a151.81,151.81,0,0,1,19.08,33l11-8.47a207.34,207.34,0,0,1-30.6-17.18c-7.36-5-14.51,5.71-9.09,11.78a524.75,524.75,0,0,1,43.26,55.52L517,312.74c-17.51-15.83-34.09-32.63-50.64-49.44-5.84-5.94-16.6,1.86-11.78,9.09l40,59.81,11.78-9.08L472.1,287.05c-5.93-6.25-16,1.74-11.78,9.09l23.93,42.12L496,329.17l-28.34-29.61c-6-6.24-15.88,1.72-11.78,9.09l33.74,60.69,11.78-9.09a130.46,130.46,0,0,1-23.31-26.12l-11.78,9.08a259.73,259.73,0,0,0,48.81,38.62c6.12,3.75,14.7-4,10.26-10.26L494.5,328l-11.78,9.09a497.91,497.91,0,0,1,46.53,42C535,385,546.25,377,541,370A576.74,576.74,0,0,1,502,310.41l-10.26,10.26a212.66,212.66,0,0,1,33.9,25.58c5.92,5.47,17.09-1.94,11.78-9.09l-21.48-28.92-10.26,10.27a233,233,0,0,1,30.17,22.6c6.35,5.63,15.83-1.38,11.78-9.08a254,254,0,0,1-12.52-27.57l-11,8.47c16.73,10.08,29.11,25.54,40.36,41.2,11.75,16.36,22.41,33.74,25.36,54l7.23-9.49c-15-.77-28.35-8.1-40.87-15.72a384.25,384.25,0,0,1-38.53-26.77l-9.09,11.78,45.17,34,7.57-13a97.85,97.85,0,0,1-27.18-18.43L525,382.27q27,13.35,54.85,24.63c5.85,2.37,10.07-4.31,9.22-9.23a223,223,0,0,0-26.87-73.74c-4.85-8.39-17.44-1-12.95,7.57L574.81,380l11.78-9.09a271,271,0,0,1-44.47-61.5l-11.78,9.09A305.35,305.35,0,0,1,562.77,370l11.78-9.09q-23.22-26.16-48.16-50.71c-5.88-5.79-16.72,1.85-11.78,9.09l49.07,71.9,11.78-9.09a582.24,582.24,0,0,1-48.58-47.88l-10.6,10.61,36,39.42,10.61-10.61-29-23.82c-7.42-6.1-17,3.23-10.6,10.61l14,16.18C543.73,384,554.31,373.3,548,366l-14-16.19-10.6,10.61,29,23.82c7.37,6.06,17.23-3.36,10.61-10.61l-36-39.42c-6.53-7.14-17.05,3.46-10.6,10.61a582,582,0,0,0,48.57,47.87c6,5.28,16.87-1.64,11.78-9.09l-49.07-71.9-11.78,9.09q24.93,24.56,48.16,50.72c5.91,6.66,15.43-1.81,11.78-9.09A323.88,323.88,0,0,0,541,307.92c-5.45-6.94-15.59,1.9-11.78,9.09A285.33,285.33,0,0,0,576,381.54c6.06,6.29,15.68-1.69,11.78-9.08l-25.58-48.53-12.95,7.57a211.48,211.48,0,0,1,25.36,70.16l9.22-9.23q-26.05-10.59-51.26-23.11c-7.33-3.62-15.53,5.58-9.09,11.78a109.53,109.53,0,0,0,30.21,20.79c8.87,4.09,15.26-7.17,7.57-13L516.07,355c-6.74-5.07-15.77,6.49-9.09,11.78a415.18,415.18,0,0,0,43.11,30.05c14.45,8.69,29.8,15.95,46.9,16.83,5.38.27,7.89-5,7.23-9.5-3.19-22-15.06-41.29-27.87-59-12.53-17.3-26.21-34-44.74-45.2-5.23-3.16-13.42,2.18-11,8.47a289.07,289.07,0,0,0,14,31.15l11.78-9.09a257.71,257.71,0,0,0-33.21-25c-6-3.81-14.83,4.11-10.26,10.26l21.48,28.92,11.78-9.09a233.37,233.37,0,0,0-36.94-27.92c-6.5-4-13.91,3.86-10.26,10.26a576.31,576.31,0,0,0,39.08,59.59l11.78-9.09a497.89,497.89,0,0,0-46.53-42c-3-2.35-6.66-3-9.85-.58-2.73,2.11-4.1,6.61-1.93,9.67l30.91,43.59,10.26-10.26a243.66,243.66,0,0,1-45.78-36.27c-5.85-5.9-16.63,1.86-11.78,9.09a145.47,145.47,0,0,0,25.66,29.15c6.3,5.44,16.08-1.35,11.78-9.08l-33.74-60.69-11.78,9.09,28.34,29.61c5.95,6.21,16-1.73,11.78-9.09l-23.93-42.13-11.78,9.09,34.22,36.07c5.77,6.08,16.58-1.91,11.78-9.09l-39.95-59.81-11.78,9.08c16.55,16.82,33.13,33.62,50.64,49.44,6,5.43,16.79-1.68,11.78-9.09a556,556,0,0,0-45.61-58.56l-9.09,11.78a206.44,206.44,0,0,0,30.6,17.18c5.12,2.33,13.81-1.72,11-8.47a166.5,166.5,0,0,0-20.59-36.61c-5.76-7.67-17.12-1.3-12.95,7.57a559.26,559.26,0,0,0,33,60.31l11.78-9.08q-17.42-19.49-33.41-40.15l-10.61,10.6a406.24,406.24,0,0,0,46.22,43.89c6.25,5.07,16.41-1.25,11.77-9.09L499.65,251.8l-11.78,9.09c22.41,27.06,45.06,54.21,72.61,76.26,2.95,2.36,6.67,3,9.85.58,2.68-2.07,4.16-6.67,1.93-9.67Q538.11,282.15,501,238.52c-4.68-5.5-15.41.38-12.54,7.3L497.3,267,511,261.26q-16-23.53-33.29-46.17l-11.78,9.09,16.76,20.37,9.09-11.78-19.63-13.84c-3.05-2.15-7.57-.8-9.67,1.93-2.42,3.14-1.82,6.92.58,9.85q14.16,17.26,30,33l10.61-10.61q-19-16.9-39.56-31.92c-6.57-4.81-13.27,4.22-10.26,10.26a528.47,528.47,0,0,0,26.52,47l11.78-9.09Q470.88,247.71,448,227.79c-6.42-5.59-15.73,1.34-11.78,9.09l29.65,58.22L477.65,286,443.12,254.8a7.54,7.54,0,0,0-11.78,9.09l30.77,60.92,11.78-9.09a268,268,0,0,0-26-26.62c-5-4.48-15.54-.23-12.54,7.3,9.72,24.45,26.28,44.58,43.14,64.44l10.61-10.61a616.94,616.94,0,0,1-76.55-78.47l-10.61,10.61,31.41,32c6.82,6.95,17-3.43,10.61-10.61l-13.18-14.87c-6.48-7.3-16.68,3.28-10.61,10.61Q437.09,320,455.55,339c6.14,6.33,15.53-1.69,11.78-9.09Q441.07,278,417.46,224.81l-13,7.57C415.72,252,427,271.65,440.81,289.64c5.8,7.56,17.2,1.33,12.95-7.57a613.16,613.16,0,0,0-33.19-60.51l-11.78,9.08a238,238,0,0,1,21.29,25.09c5.6,7.64,17.71,1.08,13-7.57l-20.4-37.07-11.78,9.08q17.7,21.93,36.38,43c5.77,6.5,15.88-1.82,11.78-9.09l-36.27-64.35L411,198.81l33,30.39c7.2,6.64,16.73-3.27,10.61-10.61a153.9,153.9,0,0,0-21.86-21.45c-7.56-6.08-16.66,3-10.6,10.6q10.38,13,21.81,25.08c6.76,7.14,16.62-3.28,10.61-10.6a124.06,124.06,0,0,1-16.21-25.95l-11.78,9.09q25.53,23.83,53,45.47c7.46,5.88,17.16-3.22,10.61-10.61a524.52,524.52,0,0,0-37.48-38.12c-5.92-5.44-17.16,2-11.78,9.09a280.94,280.94,0,0,0,36,39.46c5.95,5.36,17.16-1.91,11.78-9.09a210.56,210.56,0,0,1-29.89-55.1l-12.53,7.3a506.52,506.52,0,0,1,71.42,78.09l11.78-9.08-2.34-2.55-10.61,10.61a472.62,472.62,0,0,1,65.73,88.72L594,350.46l-3.77-3.59c-5.88-5.61-17,2-11.78,9.09a267.38,267.38,0,0,1,17.44,26.3c5.12,9,7,18.1,3.88,28.13-1.57,5.07,2.6,9,7.23,9.5l.59.06c2.52.26,5.29-1.61,6.48-3.72,1.76-3.13,1.52-5.69.08-8.89-1.08-2.38-4-3.64-6.48-3.71a8.84,8.84,0,0,0-8.12,4.62c-.52.93-1.89,3.74-1.19,4.83q-.19,1.8,1.17-.72c.79-.49.8-.6,0-.34-.58-.25-2.25,0-2.94,0-1.76-.19-3.52-.59-5.25-.95-3.47-.72-6.91-1.62-10.3-2.65-13.94-4.24-26.95-10.93-39.72-17.86-25.58-13.87-51.78-27.75-73.5-47.38l-10.61,10.6c3.33,2.62,6.5,4.5,10.72,5.27,9.67,1.77,12.82-10.79,4-14.46A98.78,98.78,0,0,1,432,314c-2.49-3.23-6.42-4.88-10.26-2.69-3.18,1.81-5.16,7.06-2.69,10.26Z" transform="translate(-222.5 -53.82)" style="fill:#a1d4d1"/><path d="M574.21,407.3a80.75,80.75,0,0,0,10.34-1.81,34.27,34.27,0,0,0,4.89-1.22c.71-.26,1.41-.57,2.14-.76s1.58,0,2.33-.14c.23,0,.27,0,.13,0-.61-.15-.9-.44-.87-.86a8.25,8.25,0,0,1,0,1,6,6,0,0,1-.15.85c0,.06-.22.73-.16.47-.2.83.23-.28.24-.1l-.67,0c-.89,0-1.78,0-2.67,0a63.91,63.91,0,0,1-10.15-.89l-.66,4.91,8.74-.48c2.68-.14,5.53,0,7.67-1.83a2.5,2.5,0,0,0-3.54-3.54,4.41,4.41,0,0,1-1.57.24l-3.84.2-7.46.41a2.52,2.52,0,0,0-2.46,2.17,2.47,2.47,0,0,0,1.79,2.74,70.87,70.87,0,0,0,13.33,1.06c2.27-.05,4.31-.29,5.57-2.44a8.69,8.69,0,0,0,.85-6c-.62-2.51-2.85-3-5.12-3s-4.11,1-6.25,1.56-4.14.91-6.21,1.34a48.51,48.51,0,0,1-6.23,1.05,2.56,2.56,0,0,0-2.5,2.5,2.53,2.53,0,0,0,2.5,2.5Z" transform="translate(-222.5 -53.82)" style="fill:#e3e2e2"/><path d="M366.83,111q-23.37-15.49-48-28.84c-15.67-8.45-32-17.43-48.79-23.36-7.19-2.54-15.7-3.57-22.64.31S236.6,70.67,236.22,78.49c-.42,8.82,3.48,17.26,7.17,25a154.62,154.62,0,0,0,13.85,23.43L269,117.85c-10.44-13.24-10.21-32-10.28-48l-14,3.78a80.93,80.93,0,0,0,21.37,27.13c6.75,5.54,15.24-1.2,11.78-9.09L268.57,70.4,258.31,80.66l19.6,8.74c3.46,1.54,7.23,1.24,9.68-1.93,2.09-2.71,2.31-7.48-.59-9.85l-10.46-8.57-7.3,12.53a541.93,541.93,0,0,1,59.55,27.88c8.49,4.6,15.9-8,7.58-13A90.37,90.37,0,0,0,317.18,88c-8.4-2.61-12.68,9.19-5.78,13.71a125,125,0,0,1,21.8,18.21l7.3-12.54a382.13,382.13,0,0,1-57.17-23.47c-7.29-3.71-15.56,5.67-9.08,11.78l18.49,17.47,10.61-10.6a222.28,222.28,0,0,0-26.43-18.68c-6.63-4-13.72,3.81-10.26,10.26L283,124.61l11.78-9.09L267.32,92.2c-6-5.11-17.07,1.67-11.78,9.09l12.59,17.65,11.78-9.09a82.75,82.75,0,0,0-13.85-12.79c-5.9-4.4-11.9,2.86-11,8.47q2.31,14.7,5.91,29.12l13.7-5.78a230.24,230.24,0,0,1-15-26.14l-11.77,9.09a183.36,183.36,0,0,1,24.27,41l11.78-9.09A57.54,57.54,0,0,1,274,124.76l-12.53,7.3a272.22,272.22,0,0,0,32.13,25.72c6,4.14,14.6-4.19,10.26-10.26L282,116.91l-8.47,11a82.34,82.34,0,0,1,14.42,7.89c7.41,5,14.47-5.68,9.09-11.78L286,111.63,277,123.41q17.1,7.25,33.83,15.31c7.31,3.53,15.58-5.55,9.09-11.78l-24.54-23.53-9.09,11.78a456.93,456.93,0,0,0,53.33,24.24c7.64,2.91,11.65-7.43,7.29-12.54a301.29,301.29,0,0,0-24.3-25.34l-9.09,11.78A361,361,0,0,0,352.07,130c8.43,3.09,12.37-9.16,5.78-13.7a83.1,83.1,0,0,1-13.23-11.47l-7.3,12.53a168.49,168.49,0,0,1,23.87,9.34c7.14,3.46,16-5.9,9.08-11.78l-12.56-10.67-9.09,11.78a734.46,734.46,0,0,1,81.31,58.57l7.3-12.54a296,296,0,0,1-74.5-42l-7.57,13q28,20.82,54.39,43.6l7.3-12.54a518.73,518.73,0,0,1-84.93-42.28l-7.57,12.95,59.08,35c7.69,4.56,14.35-5.5,9.08-11.78a173.29,173.29,0,0,0-37.72-33.4c-7.11-4.67-15.33,6-9.09,11.78l30.43,28.2L386.73,154l-41.81-35.1c-7.47-6.27-16.65,3.11-10.6,10.61a252.64,252.64,0,0,1,23,34.1l11.78-9.09a425.59,425.59,0,0,1-40.43-36.92c-5.78-6-16.67,1.93-11.78,9.08l28.9,42.3,11.78-9.09q-20.44-19.74-39.85-40.52c-6.65-7.13-16.86,3.37-10.61,10.61a515.21,515.21,0,0,1,37,48.38L356,169.26q-22.25-19.47-43.22-40.32c-5.81-5.78-17.08,2.12-11.78,9.09l23.14,30.37,10.27-10.26a148.22,148.22,0,0,1-29.86-29.7c-5.76-7.66-17.12-1.31-12.95,7.57l10.05,21.43,11.78-9.09a74.1,74.1,0,0,0-28.79-20.46c-6.38-2.62-11.4,5.83-8.47,11L306,191.71l2.69-10.26q3.35.65,1.4-.42a28.84,28.84,0,0,1-2.14-2.28c-1.21-1.35-2.39-2.73-3.56-4.11-2.71-3.21-5.33-6.49-7.82-9.87a230.45,230.45,0,0,1-13.88-21.24l-11.77,9.09a585.79,585.79,0,0,0,67.55,54.31c6.27,4.33,14.06-4.1,10.26-10.26q-17-27.57-36.68-53.36l-11.77,9.09c6.92,8.09,13.66,16.34,20.14,24.78l10.26-10.26a22.37,22.37,0,0,1-7.44-6.61l-10.26,10.26q28.6,21.65,55.42,45.5l9.09-11.78a455.11,455.11,0,0,1-72.53-48.46l-9.09,11.78a268.67,268.67,0,0,1,47.72,41.21c6,6.57,15.38-1.78,11.78-9.09a226.72,226.72,0,0,1-14.06-36.18l-11,8.47a233.45,233.45,0,0,1,40.05,23.18c7,5.07,14.94-5.88,9.08-11.78l-17.53-17.67-10.61,10.61,33.78,31c7.14,6.55,17.06-3.42,10.61-10.61A445,445,0,0,1,365,158.64l-10.27,10.27q15,8.21,30.73,15c8.81,3.8,15.53-7.23,7.57-12.95a193.73,193.73,0,0,1-30.57-27.5l-9.09,11.78c8.38,4.29,15.31,10.43,22.63,16.24a109.24,109.24,0,0,0,26.14,15.37q32.42,13.65,64.85,27.25c6.11,2.57,11.8-5.89,8.47-11a155.9,155.9,0,0,0-37.87-40.23c-6.76-5-15.75,6.47-9.09,11.78a107.34,107.34,0,0,1,22.26,23.86L461,188.2a247.77,247.77,0,0,1-47-26.31c-6.87-4.9-15.65,6.34-9.09,11.77l32.65,27.05,9.09-11.78c-7.05-5.23-14.31-10.16-21.82-14.7-6-3.65-14.93-10.84-21.71-5-6.29,5.38-2,13.19.66,19.21l10.92,25L425,203.12a236.35,236.35,0,0,1-34.32-28c-6.9-6.78-17.3,3.64-10.61,10.6a270.75,270.75,0,0,1,23.64,28.08l11.78-9.09-27.4-25.47c-7.08-6.59-17.2,3.53-10.6,10.6A272.15,272.15,0,0,1,404.58,224l6.47-11.28c-3.61-.07-6.81-3-9.63-5.05l-10.08-7.25-20.93-15c-7.05-5.07-14.93,5.88-9.09,11.78l22.05,22.27c6.95,7,16.49-3.25,10.6-10.6a181.58,181.58,0,0,0-24.82-25.46c-7.45-6.27-16.72,3.14-10.61,10.61a107.5,107.5,0,0,1,9,13l10.26-10.26A162,162,0,0,1,355.26,180l-9.09,11.78a146.44,146.44,0,0,1,12.89,9.27c3.34,2.72,8.86,6.22,10.95,10.09,4.3,8-15.55,10.67-19.89,11.16-4.72.53-8.42-.24-12-3.39A83.1,83.1,0,0,1,328,208a112.87,112.87,0,0,1-15.75-26.78L298.58,187a203,203,0,0,0,60.26,55.67c7.77,4.67,14.17-5.49,9.09-11.77l-30.06-37.2-9.09,11.78a214.16,214.16,0,0,1,32.93,20.22l7.57-12.95L337.7,193.1c-7.12-4.42-15.55,6.07-9.09,11.78q28.68,25.34,58.62,49.18l9.09-11.78a176.37,176.37,0,0,0-59.1-21.42c-7.35-1.25-12.47,6.65-7.29,12.53,29,32.92,58.83,65.07,93.68,91.9,6.91,5.32,14.81-5.86,9.09-11.78A591.71,591.71,0,0,1,370.81,238L359,247.09l57.48,61.85,10.61-10.6a273.76,273.76,0,0,1-28.87-27.91c-4.22-4.74-8.3-9.62-12.15-14.67q-3.18-4.17-6.17-8.47c-1.23-1.75-4.68-5.3-4.57-7.42l-1,3.78.61-1.2-10.26,2.69a710.47,710.47,0,0,1,62.78,49.58c7.17,6.35,17.61-3.84,10.6-10.61a446.42,446.42,0,0,1-44.95-50.34l-11.78,9.09q19.48,23.7,41.16,45.44c5.86,5.88,16.62-1.84,11.78-9.09q-19.65-29.41-40.84-57.77c-2.44-3.27-6.46-4.86-10.26-2.69-3.38,1.92-4.91,6.89-2.69,10.26l23.16,35.18,10.26-10.26a416.21,416.21,0,0,1-48.18-43.17l-9.09,11.78a397.17,397.17,0,0,1,51.2,34.54l9.09-11.78-52.58-31.46c-7.09-4.24-15.94,6.41-9.09,11.78l30.81,24.12c9.45,7.4,18.5,15.58,29.85,19.9,6.73,2.56,10.95-5.73,8.47-11q-12.33-26.28-26.88-51.41c-4.83-8.35-17.8-.8-12.95,7.58q14.54,25.11,26.88,51.4l8.47-11c-9.81-3.72-18.17-12.07-26.31-18.45L365.87,215l-9.08,11.78,52.58,31.46c7.09,4.24,15.89-6.35,9.09-11.78a421.68,421.68,0,0,0-54.24-36.88c-7.44-4.24-15,5.6-9.09,11.78a439.1,439.1,0,0,0,51.22,45.51c6,4.6,14.2-4.28,10.26-10.26l-23.16-35.18L380.5,229q21.18,28.35,40.84,57.77l11.77-9.09Q411.47,256,392,232.26c-5.35-6.51-16.95,2.3-11.78,9.09a471.78,471.78,0,0,0,47.3,53.37l10.6-10.61a744.87,744.87,0,0,0-65.81-51.92c-3.19-2.24-8.52-.7-10.26,2.69-4.2,8.19,1.34,14.86,6,21.41s9.43,12.74,14.52,18.8a272.56,272.56,0,0,0,34,33.85c7.33,6.13,17.28-3.42,10.61-10.6l-57.49-61.86c-5.7-6.13-16.67,2-11.78,9.09a615.35,615.35,0,0,0,64.23,78.55l9.09-11.78c-33.75-26-62.6-57.69-90.65-89.56l-7.29,12.54a164.67,164.67,0,0,1,55.51,19.92c7.11,4.12,15.93-6.33,9.09-11.78q-29.94-23.85-58.62-49.19l-9.09,11.78,31.58,19.61c8.4,5.21,15.11-7.33,7.57-12.95a213.68,213.68,0,0,0-32.93-20.22c-7.88-3.91-14.42,5.18-9.09,11.78l30.06,37.19,9.09-11.78a184.89,184.89,0,0,1-54.88-50.29c-2.2-3.07-5.7-4.61-9.36-3.07-3.1,1.3-5.78,5.39-4.34,8.84a133.4,133.4,0,0,0,23.46,38c4.61,5.18,9.7,10.5,16.4,12.87,6.91,2.44,14.23,1.35,21.23-.06,12.83-2.6,29.68-10.25,26.38-26.48-1.45-7.19-7.6-12.19-12.9-16.72a176.68,176.68,0,0,0-18.66-13.89c-7.07-4.59-15.51,6.1-9.09,11.78a184.94,184.94,0,0,0,25.6,19c6.41,3.94,14.08-3.88,10.26-10.26a133.85,133.85,0,0,0-11.36-16L358.54,194a181.56,181.56,0,0,1,24.83,25.45l10.6-10.6-22-22.28-9.09,11.78,24,17.28c7.4,5.32,14.6,11.93,24.18,12.12,5.46.1,9.66-6.54,6.48-11.29a296,296,0,0,0-29.46-37.21l-10.6,10.6,27.39,25.48c5.92,5.5,17-1.9,11.78-9.09a298.18,298.18,0,0,0-26-31.11l-10.61,10.6a258,258,0,0,0,37.36,30.35c6.92,4.62,12.95-4.11,10.26-10.27l-7-16.06-3.12-7.15c-.65-1.48-1.32-3-2-4.46-1.51-3.59.55-.26-1.84,1.65l-5.31,2.2,1.45,0-3.79-1c11.72,5.16,22.76,13.36,33,21,6.79,5,15.64-6.35,9.09-11.78l-32.65-27.05-9.09,11.78a248.6,248.6,0,0,0,47,26.32c3.13,1.33,6.53,1.39,9.09-1.18,2.25-2.24,3-6.35,1.18-9.08A119.91,119.91,0,0,0,439.09,164L430,175.79a135.33,135.33,0,0,1,32.48,34.84l8.47-11q-31.56-13.28-63.12-26.54a96.48,96.48,0,0,1-23.77-14.26c-7.37-6-14.63-12.2-23.14-16.55A7.54,7.54,0,0,0,351.83,154a210.93,210.93,0,0,0,33.61,29.84L393,170.93q-15.72-6.77-30.73-15c-6.1-3.33-14.88,3.82-10.26,10.27a482.62,482.62,0,0,0,33,41.12l10.61-10.61-33.78-31c-7.1-6.5-17.45,3.72-10.61,10.61L368.77,194l9.09-11.78a232.8,232.8,0,0,0-40.05-23.18c-5.61-2.55-13,1.68-11,8.47a250.09,250.09,0,0,0,15.57,39.76l11.78-9.09a286,286,0,0,0-50.76-43.56c-7-4.7-15.72,6.36-9.09,11.78a474.55,474.55,0,0,0,75.57,50.81c7.21,3.89,15.71-5.91,9.09-11.78q-28.29-25.07-58.46-47.84c-6-4.52-14.41,4.31-10.26,10.26a39.51,39.51,0,0,0,12.82,12c6,3.47,15.06-4,10.26-10.26q-10.89-14.19-22.49-27.82c-5.46-6.38-17,2.29-11.78,9.09q19.65,25.77,36.68,53.36L346,194a561.2,561.2,0,0,1-64.52-52c-6.13-5.73-16.14,1.55-11.78,9.09a239.35,239.35,0,0,0,20.58,30c5.43,6.75,15.78,21.19,25.94,13.35,3.24-2.51,4.89-6.35,2.69-10.26l-29.81-52.8-8.47,11A58.55,58.55,0,0,1,302.79,159c5.88,6.91,15.16-1.9,11.78-9.09l-10.05-21.43L291.57,136a172.76,172.76,0,0,0,35.23,35.08c5.88,4.38,14.74-4.38,10.27-10.26l-23.14-30.37-11.78,9.09q21,20.85,43.22,40.32c6,5.28,16.83-1.62,11.78-9.09a551.47,551.47,0,0,0-39.39-51.42L307.15,130q19.39,20.78,39.85,40.52c5.92,5.71,16.75-1.82,11.78-9.09l-28.9-42.3-11.77,9.09a425.69,425.69,0,0,0,40.42,36.93c6.33,5.07,16.26-1.19,11.78-9.09a275.32,275.32,0,0,0-25.39-37.14l-10.6,10.61,41.81,35.1c7.28,6.12,17.78-3.95,10.6-10.61l-30.43-28.2-9.08,11.78a160,160,0,0,1,34.69,31.06L391,156.85l-59.08-35c-8.33-5-15.78,7.89-7.57,12.95a540.38,540.38,0,0,0,88.51,43.8c7,2.69,12.82-7.79,7.3-12.54q-27.89-24-57.43-45.94c-3.27-2.44-8.34-.51-10.26,2.69-2.3,3.84-.5,7.8,2.69,10.26a308.33,308.33,0,0,0,78.08,43.53c6.89,2.65,12.95-7.84,7.3-12.53a763,763,0,0,0-84.35-60.91c-7.09-4.41-15.67,6.19-9.09,11.78l12.57,10.67,9.09-11.78a193.35,193.35,0,0,0-27.45-10.85c-7.39-2.27-12.26,7.28-7.3,12.54a101.27,101.27,0,0,0,16.27,13.81l5.78-13.71a325.17,325.17,0,0,1-35-15.21c-7.27-3.67-15.64,5.7-9.09,11.78a301.47,301.47,0,0,1,24.31,25.35L343.55,125a427.14,427.14,0,0,1-49.74-22.73c-7.31-3.92-15.42,5.7-9.08,11.78l24.53,23.53,9.09-11.78q-16.73-8.07-33.83-15.31c-7.62-3.23-15,5-9.09,11.78l11,12.41,9.08-11.78a100,100,0,0,0-18-9.4c-5.93-2.44-12.12,5.91-8.47,11l21.93,30.61,10.26-10.26a246.76,246.76,0,0,1-29.1-23.38c-5.25-4.91-14.85-.13-12.53,7.3a77.18,77.18,0,0,0,13.75,25.55c2.32,2.91,7.17,2.65,9.85.59,3.17-2.46,3.44-6.19,1.93-9.68a197,197,0,0,0-26.63-44c-5.58-7-15.29,1.92-11.78,9.09a230.24,230.24,0,0,0,15,26.14c4.64,7,15.83,2.71,13.71-5.78q-3.6-14.43-5.91-29.12l-11,8.47a66.52,66.52,0,0,1,10.83,10.45c5.44,6.43,16.74-2.13,11.78-9.09L268.5,93.72l-11.78,9.09,27.44,23.32c6.37,5.41,16-1.3,11.78-9.09L279.61,86.58,269.35,96.84a196.18,196.18,0,0,1,23.39,16.33c7.32,6,17.76-3.85,10.61-10.6L284.85,85.1l-9.09,11.78a406.52,406.52,0,0,0,60.75,25c7.36,2.35,12.29-7.32,7.3-12.53A142.27,142.27,0,0,0,319,88.77l-5.78,13.71a71.34,71.34,0,0,1,15.6,7l7.58-13a577.74,577.74,0,0,0-63.14-29.38c-6.87-2.71-13,7.89-7.3,12.53l10.47,8.58,9.08-11.78-19.6-8.74c-7.08-3.16-13.36,3.2-10.26,10.26L265,99.25l11.78-9.08a70.68,70.68,0,0,1-19-24.1c-3.34-6.87-14-3.32-14,3.79.09,20.7,1.37,41.72,14.67,58.6,5.22,6.63,16.72-2.15,11.78-9.09A156.25,156.25,0,0,1,258.35,100c-3.07-6-7.12-13.19-7.16-20.12-.08-15.89,20.38-4.39,27.47-1.1A613.71,613.71,0,0,1,359.26,124c8.07,5.35,15.59-7.64,7.57-12.95Z" transform="translate(-222.5 -53.82)" style="fill:#a1d4d1"/><path d="M259.65,98.83a20.71,20.71,0,0,0-1-7.25c-.78-2.31-2.31-4.28-2.68-6.72a73.16,73.16,0,0,1-.43-7.55,3.68,3.68,0,0,0,0-.82s-.59.85-.6.83a15.66,15.66,0,0,0,1.63-.39c.66-.14,1.33-.27,2-.38a8.87,8.87,0,0,0,.9-.14c.49-.15.3.15,0-.11l-.89-.9s-.06-.25-.07-.24a3.46,3.46,0,0,0-.22.72c-.23.76-.44,1.52-.64,2.28-.42,1.61-.79,3.24-1.09,4.87a76.11,76.11,0,0,0-1.15,9.87l4.91-.67a39.17,39.17,0,0,1-1.39-9.45c0-.38.22-4.63.17-4.65-.62.68-.76,1-.41.79l.47-.16a7.77,7.77,0,0,1,1.06-.25,8.14,8.14,0,0,1,2.15,0l-2.41-3.17a21.78,21.78,0,0,1-2,6.41c-1.45,2.87,2.86,5.4,4.32,2.53a26.21,26.21,0,0,0,2.52-7.61,2.55,2.55,0,0,0-2.41-3.16A11,11,0,0,0,256,74.63c-2.13,1.22-2.07,3.66-2.15,5.82a44.59,44.59,0,0,0,1.54,13.11c.76,2.8,4.77,2.11,4.92-.66A65.14,65.14,0,0,1,262,81.11c.68-2.89,3.39-9-1.54-9.69-1.78-.26-3.94.39-5.68.79-1.92.43-3.69,1.17-4.16,3.29-.41,1.83,0,4,.12,5.89a28.61,28.61,0,0,0,.65,5.91c.52,2,1.79,3.66,2.45,5.61a16.73,16.73,0,0,1,.8,5.92c-.08,3.22,4.92,3.22,5,0Z" transform="translate(-222.5 -53.82)" style="fill:#e3e2e2"/><path d="M367.71,369c-1.62,8.89.56,17.15,6.83,23.76,4.25,4.49,10.53,1.63,12.53-3.31a6.34,6.34,0,0,0,.72-3.09c-1,1-1.11,1.18-.36.65,1.46-1.45,4.27-2.5,6.11-3.39,4.18-2,8.68-3.21,12.79-5.41,5.15-2.76,4.58-10.06,0-13l-.88-.56c-8.18-5.17-15.72,7.8-7.57,13l.88.56v-13c-5.63,3-11.85,4.61-17.4,7.9a22.76,22.76,0,0,0-5.77,4.4c-2.27,2.61-1.8,5-3,7.91l12.54-3.31a10.49,10.49,0,0,1-3-9.17c1.72-9.44-12.74-13.49-14.46-4Z" transform="translate(-222.5 -53.82)" style="fill:#7a7bb8"/><path d="M237,171.19c0,4.16,2.12,7.4,4.14,10.86l5.8,10c4.86,8.33,17.82.79,13-7.58l-4.51-7.74-1.94-3.33-1.28-2.21c-.61-1.19-.66-1.19-.16,0-.08-9.65-15.08-9.67-15,0Z" transform="translate(-222.5 -53.82)" style="fill:#7a7bb8"/><path d="M223.54,107.74c1.65,10.48,7.46,20.17,12,29.63,4.72,9.85,9.44,19.66,15.17,29L261,156.09c-10.77-7.89-17.37-19.84-19.51-32.88-1.36-8.25-15.69-6.42-14.74,2s4.53,15.79,6,24c.72,4,1.33,7.6,3.05,11.29,1.61,3.44,4.1,6.49,5.48,10L255,164.72,252,160.64c-2.2-3.06-5.71-4.6-9.36-3.07-3.1,1.31-5.77,5.39-4.35,8.85l9.6,23.24c2.88,7,5.38,14.41,9.68,20.69,4.74,6.94,15.69,2.76,13.71-5.77l-5-21.43c-1.55-6.67-3.8-13.53-3.91-20.41l-14,3.79a150.1,150.1,0,0,0,12.34,17.41c5,6.17,14.12-.6,12.54-7.3a79.4,79.4,0,0,0-6.4-17.32c-3.74-7.47-17-2.13-13.7,5.78a135,135,0,0,0,24.64,39.23c5.89,6.52,15.65-1.78,11.78-9.08-3.53-6.67-9.65-10.52-11.26-18.23l-13.71,5.78c2.81,6.6,7.18,12.15,11.57,17.77Q283.58,210,291,219.33l7.3-12.53c-4.7-1.73-8.65-5.24-12.54-8.29L271.81,187.6c-6.33-5-16.31,1.14-11.78,9.09l8.8,15.43,10.26-10.26L272.83,198c-5.81-3.62-12.4,2.34-11,8.47a10.62,10.62,0,0,1,.06,3.69c-.44,4,3.76,7.5,7.5,7.5,4.41,0,7.06-3.46,7.5-7.5a23.37,23.37,0,0,0-.59-7.68l-11,8.47,6.26,3.91c6.5,4.05,13.89-3.9,10.26-10.26L273,189.12l-11.78,9.09c10.31,8.08,20.61,18.48,33.07,23,3.08,1.13,6.9-.75,8.47-3.45,1.82-3.11.91-6.43-1.17-9.08-8.27-10.55-18.64-21.07-23.94-33.51-3.49-8.19-15.34-2.06-13.7,5.78a31.81,31.81,0,0,0,5.13,12c2.43,3.42,5.67,6.13,7.64,9.85l11.78-9.09a113.9,113.9,0,0,1-20.79-32.62L254,166.89a61.93,61.93,0,0,1,4.88,13.74l12.54-7.3a123,123,0,0,1-10-14.38c-3.76-6.26-14.1-3.77-14,3.79s2.29,15.12,4,22.54l5.41,23.28,13.71-5.78c-3.95-5.77-6.25-12.47-8.91-18.89l-8.85-21.46-13.71,5.78,2.93,4.08c2.2,3.07,5.71,4.61,9.36,3.07,3.15-1.32,5.71-5.36,4.35-8.85-2.7-6.89-7-12.23-8.27-19.67s-4.9-14.23-5.74-21.63l-14.73,2c2.81,17.06,12.57,31.71,26.41,41.84,6.21,4.54,14-4.2,10.26-10.26a295,295,0,0,1-14.35-27.27c-4.27-8.9-9.75-17.9-11.31-27.76-.62-4-5.64-6.24-9.22-5.24-4.27,1.19-5.88,5.19-5.24,9.23Z" transform="translate(-222.5 -53.82)" style="fill:#7a7bb8"/><path d="M229.58,75c-1.92,9.07-.08,18.24,3.21,26.77s7.54,16.49,11.81,24.45a439.46,439.46,0,0,0,28.29,45.73q8.83,12.5,18.52,24.36c1.8,2.22,5.41-.65,3.92-3-8.56-13.73-16.72-27.91-26.87-40.55a113.79,113.79,0,0,0-8.94-9.94,2.51,2.51,0,0,0-3.28-.19,2.55,2.55,0,0,0-.65,3.22c9.46,21.2,24.06,39.49,38.1,57.78,14.42,18.79,28.95,37.53,44.62,55.32,8.77,9.95,17.89,19.59,27.5,28.74,2.34,2.22,5.88-1.31,3.54-3.53-17-16.18-32.45-33.9-47.17-52.16-7.34-9.09-14.51-18.32-21.64-27.59s-14.17-18.28-20.88-27.69c-7.52-10.54-14.46-21.54-19.75-33.39l-3.93,3c11,10.84,19.17,24,27.28,37L291,195.8l3.92-3a433.74,433.74,0,0,1-30.47-42.42q-7-11-13.27-22.48c-4.25-7.7-8.42-15.5-12-23.55-3.84-8.7-6.84-18.45-4.82-28,.67-3.14-4.15-4.48-4.82-1.33Z" transform="translate(-222.5 -53.82)" style="fill:#37378a"/><path d="M346.48,339.28c9.65,0,9.66-15,0-15s-9.67,15,0,15Z" transform="translate(-222.5 -53.82)" style="fill:#7a7bb8"/><path d="M340,326.79a248,248,0,0,0-6.72,36.87c-.55,5,5.21,8.33,9.49,7.23l10.5-2.69L343.79,361c.33,5.8-2.16,10.7-4.57,15.83-2.5,5.34-4.7,10.8-6.74,16.32-4.3,11.68-8.48,23.42-12.71,35.13l14.73,2a257.58,257.58,0,0,1,12.38-64.7c2.73-8.35-9.24-12.68-13.71-5.78L311,394l13.71,5.78a21.73,21.73,0,0,1,4.81-7.19l-11.78-9.09a447.52,447.52,0,0,0-17.41,42.1q-3.7,10.5-6.86,21.2c-1.68,5.7-2.34,14.32-6.82,18.59l12.53,7.3c5.62-16.71,16.86-37.28,33.71-44.81l-11.28-6.48c.3,13.39-7.64,26.87-12.77,38.89-5.73,13.4-11.65,26.73-18.07,39.82l14,3.78a113.84,113.84,0,0,1,19.49-64.76c5.43-8.1-7.44-15.35-13-7.57l-15.77,22.25c-5,7-10.13,14-13.72,21.89-7.34,16.06-12.07,33.54-17.74,50.24-2,6,4.06,10,9.22,9.23a71.43,71.43,0,0,1,18.07-.08c5.38.6,7.88-5.24,7.24-9.49-.34-2.27,2.22-5.35,3.28-7.11a46.26,46.26,0,0,0,4.44-8.8c2.37-7,1.16-18.28-5.84-22.4a10.06,10.06,0,0,0-11.74,1.26c-3.35,2.82-3.21,6.5-5,10.09s-4.6,6.5-6.18,10.36a35.62,35.62,0,0,0-2.53,12.66c-.27,9.65,14.73,9.64,15,0a20.51,20.51,0,0,1,4-11.64,36,36,0,0,0,3.51-5.55,22.14,22.14,0,0,0,1.17-3.12c.13-.5.25-1,.35-1.51.28-1,.21-1-.24.05l-3.78,1,1.1.05-3.78-1c-1-1.39-1.17-1.47-.58-.22a10.26,10.26,0,0,1,.56,2.11,7.2,7.2,0,0,1-.32,3.28c-.77,2.48-2.51,4.74-3.82,7-3.37,5.69-5.1,10.9-4.11,17.52l7.23-9.49a86.14,86.14,0,0,0-22,.61l9.22,9.23,8.94-26.34c2.49-7.32,4.65-14.91,8-21.89,3.51-7.26,8.34-13.76,13-20.32l15.77-22.25-13-7.57a128,128,0,0,0-21.54,72.33c.06,7.07,10.58,10.71,14,3.79,7-14.23,13.36-28.74,19.56-43.32,5.77-13.58,13.67-27.82,13.33-43-.14-6.12-6.17-8.77-11.29-6.48-10.43,4.67-18.24,13.82-24.86,22.85a112.88,112.88,0,0,0-15.74,30.93c-2.48,7.38,7.37,12.22,12.53,7.3,5.37-5.12,7-12.07,8.9-19q3.11-11.18,6.83-22.18a406.45,406.45,0,0,1,17.72-43.78c3.46-7.32-5.5-15.57-11.78-9.09a40.17,40.17,0,0,0-8.68,13.82c-3.22,8.23,9.31,12.58,13.71,5.78l22.18-34.27-13.7-5.78a273.18,273.18,0,0,0-12.92,68.68c-.53,8.92,12,9.52,14.74,2,4.44-12.29,8.77-24.63,13.35-36.87,4.17-11.12,11.89-22.09,11.2-34.39-.28-4.89-4.57-8.5-9.49-7.24l-10.51,2.69,9.5,7.24a222.55,222.55,0,0,1,6.18-32.88c2.47-9.34-12-13.33-14.46-4Z" transform="translate(-222.5 -53.82)" style="fill:#7a7bb8"/><path d="M313.16,414.8v19.9l14.74-2c-2.84-10.62,5.39-21.53,10.32-30.3l18.53-32.94c4.74-8.43-8.22-16-12.95-7.58Q333.07,381,322.35,400c-6.35,11.31-12.46,23.41-8.92,36.66,2.19,8.17,14.74,6.5,14.73-2V414.8c0-9.65-15-9.66-15,0Z" transform="translate(-222.5 -53.82)" style="fill:#7a7bb8"/><path d="M341.23,326.36a22,22,0,0,1-4.39,16.48l12.8,5.3c.1-1.74,0-6.73,1.75-7.76s4.48,2.12,5.58,3.2a41.64,41.64,0,0,1,11.61,19.61c2.27,8.69,3.1,17.79,4.35,26.66l3.84,27.35,8,56.65c2.64,18.74,6.07,37.61,5,56.61a7.54,7.54,0,0,0,5.5,7.23,73.15,73.15,0,0,0,22.41,1.65c4.37-.38,9.14-4.57,7.24-9.5a140.39,140.39,0,0,1-8-30.22c-1.24-8.38-15.08-6.37-14.73,2a76.05,76.05,0,0,1-1.7,20H415a82.79,82.79,0,0,1,.7-28.43H401.2l2.06,8.86c2.22,9.58,15.92,5.33,14.46-4-4.68-29.85-9.37-59.71-12.52-89.77-1.55-14.85-2.43-29.7-3.39-44.59-.81-12.5-4.66-24.56-17.39-29.24-5.95-2.18-10,4.17-9.22,9.23,2.49,16.15,3.25,32.35,3.93,48.65s2.64,32.09,4.7,48.13a380.2,380.2,0,0,1,3,48c0,7.72-.05,15.44.15,23.15.19,7.08.38,14.32,4.32,20.47,3.29,5.12,9.55,4.48,12.95,0,4.53-6,5.27-13.66,4.67-20.93-.72-8.67-2.12-17.32-3.05-26q-2.83-26.31-4.33-52.73c-1-17.61-1.58-35.25-1.64-52.88,0-1.39-.26-6.18.49-6.55,1.86-.93,8.52,4.73,9.76,5.6L432,394.1c6,4.25,14.53-4.23,10.26-10.26a300.19,300.19,0,0,0-33.94-40.27Q399,334.33,388.82,326c-6.55-5.37-13.19-10.37-21.43-12.8-5.06-1.49-9,2.54-9.49,7.24l-.95,9.47c-.32,3.16-.93,2.89-3.17,5.92A33.3,33.3,0,0,0,347.69,353c-.73,7.78,10.35,9.68,14,3.78l1.94-3.17c4.39-7.13-6.07-15.58-11.77-9.09a77.61,77.61,0,0,0-14.73,24.84l14.73,2c.81-8.45,4.55-21.87,14.76-23.42a3.81,3.81,0,0,1,2.22,0s-.72-.88-.69-.37c.1,2.42-1.52,5.53-1.9,7.95a25.83,25.83,0,0,0,3.25,16.75c4.13,7.41,16.06,2.41,13.71-5.78-2-6.86-4.06-13.73-7.28-20.12-3-5.87-7.79-13.56-14.49-15.5-8.56-2.47-12,4.73-14.61,11.32a115.19,115.19,0,0,0-6.42,24.06c-1.28,8.12,8.87,13.35,13.71,5.78q4.59-7.2,9.23-14.38c2.76-4.27-.1-9.56-4.48-11-3.35-1.11-10.56-2.9-11-7.39-.34-3.71-2.6-6.9-6.51-7.37-3.39-.4-7.58,1.65-8.23,5.38A110.83,110.83,0,0,1,320,373.78c-4.82,8.38,8.14,15.94,13,7.57a122.81,122.81,0,0,0,14.64-40.12l-14.73-2c1.14,12.58,11,18.2,22,21.86l-4.48-11q-4.63,7.19-9.23,14.38l13.7,5.78A116.89,116.89,0,0,1,358,355.8q1-3.56,2.29-7,.63-1.74,1.32-3.45,1.53-2.67-.1-.93l-3.79,1c-1.76,0-.32.25.69,1.42a27.29,27.29,0,0,1,1.74,2.27,44,44,0,0,1,3.76,6.87,113.5,113.5,0,0,1,4.81,14.5l13.71-5.77c-4.22-7.58,3-15.44-.61-23.48-3.28-7.3-11.51-9.47-18.89-7.83-17.39,3.88-24.59,22.1-26.1,37.95-.85,9,12,9.4,14.74,2a57.65,57.65,0,0,1,10.86-18.22L350.66,346l-2,3.17,14,3.79c.57-6.11,4.76-8.91,7.39-13.9,2.75-5.19,2.24-12.94,2.82-18.68l-9.5,7.23c7.29,2.14,13.17,7.48,18.84,12.31S393.61,350,399,355.41a279,279,0,0,1,30.36,36l10.26-10.26c-8.33-5.87-16.55-11.93-25-17.62-6.67-4.49-15.4-7.9-22.79-2.9-7.56,5.12-6.94,14.86-6.87,22.91q.13,14.7.69,29.39,1.1,29.38,3.87,58.66,1.38,14.64,3.18,29.22c.93,7.6,3.66,17.13-1.37,23.76h12.95c-3.44-5.37-2.32-13.56-2.39-19.64-.08-7.72,0-15.44-.06-23.15a385.59,385.59,0,0,0-3.72-47c-2-15.43-3.5-30.76-4.11-46.31a427.66,427.66,0,0,0-4.31-48.73l-9.22,9.23c4.13,1.52,5.47,6.94,6,10.78.89,6.29.78,12.8,1.2,19.14.91,13.76,2.25,27.49,3.85,41.19,3.21,27.43,7.47,54.73,11.75,82l14.46-4-2.06-8.85c-1.62-7-13-7.3-14.46,0a103.77,103.77,0,0,0-.7,36.4c1.13,7.41,12.92,6.89,14.46,0a91.89,91.89,0,0,0,2.24-24l-14.73,2a141,141,0,0,0,7.95,30.23l7.23-9.49a60,60,0,0,1-18.42-1.11l5.51,7.23c1-18.05-2.08-36-4.58-53.76L392.74,424c-2.48-17.71-4.84-35.45-7.47-53.15-2.31-15.46-7.69-29.68-20.06-40-6.27-5.22-14.71-7.93-22-3-6.66,4.47-8.1,12.91-8.53,20.33-.36,6.11,8.75,10.42,12.8,5.31a38.61,38.61,0,0,0,8.25-31.08c-.6-4-5.65-6.24-9.22-5.23-4.28,1.19-5.85,5.18-5.24,9.22Z" transform="translate(-222.5 -53.82)" style="fill:#7a7bb8"/><path d="M256.74,210.94c6.29,14.88,20,24.65,27.33,38.84l10.26-10.26c-4.62-2.27-7.36-6-9.85-10.37-2.61-4.64-5.93-9.87-5.43-15.35l-11.29,6.47a57.41,57.41,0,0,1,16.54,11.89c4.66,4.81,8.83,10,14.13,14.15,6.68,5.23,15.53-1.06,11.78-9.09q-5.4-11.57-9.71-23.57L288,221a71.25,71.25,0,0,0,13.75,12.89c6.56,4.82,13.28-4.22,10.26-10.26a53.17,53.17,0,0,0-6.72-10c-5.36-6.49-16.89,2.25-11.78,9.09,8.09,10.84,16,21.78,24.3,32.5a92,92,0,0,0,11.75,12.42c4.14,3.72,8,7.27,10.33,12.4l8.47-11c-12.38-5.15-22.9-14-31.84-23.8-8.65-9.52-15.17-23.68-29.46-24.77-5.79-.44-9.19,6.67-6.47,11.29,11.59,19.74,27.35,36.59,39.28,56.11l10.26-10.26a130.44,130.44,0,0,1-38.49-37.9l-11.78,9.09c11.29,12.74,20.69,27,31.39,40.19s23.35,25.05,36.16,36.43c6.26,5.55,16.08-1.42,11.78-9.09-9.4-16.79-18.84-33.56-29.33-49.7L318,275.61q14.73,14.53,30.42,28c7.3,6.26,17.14-3.38,10.61-10.61a76.06,76.06,0,0,1-12.13-18.22L336.68,285,354,297.76c6.15,4.51,14.11-4.21,10.26-10.26l-7.91-12.42-12.95,7.57a32.85,32.85,0,0,0,5.38,5.91c6.79,5.56,15.15-1.21,11.78-9.09-2-4.77-5.38-8.24-9.53-11.23C344,263.17,336.15,274.11,342,280q14.17,14.4,27.42,29.67l9.09-11.78-27.63-12.83c-7.6-3.53-15,5.21-9.09,11.78L356.37,313l9.09-11.78-3.15-1.82c-5.78-3.34-12.55,2.17-11,8.47a10.93,10.93,0,0,0,1.5,3.51c5.27,8,18.27.54,12.95-7.57v.08l-11,8.47,3.15,1.81c7.54,4.37,14.72-5.54,9.09-11.78l-14.6-16.15L343.29,298l27.63,12.84c7.7,3.58,14.83-5.15,9.08-11.78q-13.23-15.29-27.42-29.68l-9.08,11.78a12.94,12.94,0,0,1,4.15,5.85L359.43,278a18,18,0,0,1-3-2.87c-2.45-3.26-6.45-4.86-10.26-2.69a7.59,7.59,0,0,0-2.69,10.26l7.91,12.42,10.26-10.26-17.36-12.72c-6.62-4.86-13.17,4.24-10.26,10.26a90,90,0,0,0,14.47,21.26L359.07,293q-15.7-13.47-30.42-28c-5.92-5.84-16.53,1.78-11.78,9.09,10.49,16.14,19.93,32.91,29.33,49.7L358,314.7c-12.81-11.38-25.36-23.08-36.16-36.43s-20.1-27.44-31.39-40.19c-5.61-6.33-16.49,2-11.78,9.09a148.36,148.36,0,0,0,43.87,43.28c6.35,4.07,14.1-4,10.26-10.26-11.93-19.52-27.69-36.37-39.28-56.11L287,235.36c4.62.36,8.61,7.94,11.11,11.13a148.52,148.52,0,0,0,13.33,15,104.26,104.26,0,0,0,32.88,21.87c6.75,2.81,10.82-5.86,8.47-11-4.81-10.51-15.2-16.31-22.24-25-8.41-10.44-16.13-21.53-24.15-32.27l-11.78,9.09a37,37,0,0,1,4.38,7l10.26-10.26a57.22,57.22,0,0,1-10.71-10.55c-4.67-5.81-15,.46-12.54,7.3q5,13.83,11.23,27.16L309,235.71c-5.75-4.5-10.15-10.25-15.3-15.35a69,69,0,0,0-18.41-13c-5.37-2.61-10.75.62-11.28,6.48-.74,8.14,3.6,16,7.48,22.92,3.65,6.48,8.44,12.42,15.23,15.75s13.83-3.4,10.26-10.26c-7.36-14.19-21.06-24-27.33-38.84-1.59-3.76-7.07-4.51-10.26-2.69-3.89,2.21-4.26,6.55-2.69,10.26Z" transform="translate(-222.5 -53.82)" style="fill:#7a7bb8"/><path d="M366.4,176.9c3.22,0,3.23-5,0-5s-3.22,5,0,5Z" transform="translate(-222.5 -53.82)" style="fill:#a1d4d1"/><path d="M385.14,196a27.4,27.4,0,0,0,5.76,6.84,2.68,2.68,0,0,0,1.76.73,2.49,2.49,0,0,0,2.5-2.5,2.47,2.47,0,0,0-.73-1.77,25.66,25.66,0,0,1-3.64-3.8l.39.51a27.69,27.69,0,0,1-1.73-2.54,2.5,2.5,0,0,0-3.42-.9,2.55,2.55,0,0,0-.89,3.43Z" transform="translate(-222.5 -53.82)" style="fill:#a1d4d1"/><path d="M235.56,65.24c-2.6,3.06-3.23,6.75-4.14,10.54-1,4.2-.33,9.09.27,13.31a119.18,119.18,0,0,0,3.07,14c1.17,4.39,2.17,8.89,3.59,13.21,2.7,8.14,7.28,15.4,11.63,22.72,2.26,3.79,4.47,7.5,7,11.12l7.94,11.41c19.72,28.29,39.64,56.5,61.71,83a566.26,566.26,0,0,0,75.22,74.73c14,11.57,28.5,22.56,43.1,33.38,14.87,11,29.93,21.71,45.55,31.67q23,14.64,47.18,27.3,6.08,3.18,12.22,6.21a31.61,31.61,0,0,0,5.76,2.6c2.26.6,4.55,1.05,6.81,1.67,8.46,2.32,16.7,5.4,25.25,7.41a86.1,86.1,0,0,0,13,2.05c3.21.24,3.19-4.76,0-5-8.67-.68-17-3.17-25.26-5.76-4.07-1.28-8.12-2.58-12.24-3.69-2-.56-4.16-.92-6.19-1.5a36.79,36.79,0,0,1-6.07-2.84q-23.8-11.85-46.55-25.7c-30.79-18.75-60-40.19-88.18-62.59-27.3-21.68-52.89-45.34-75.87-71.57-22.17-25.32-42-52.52-61.36-80q-7.53-10.71-15-21.48c-2.53-3.64-5.19-7.2-7.38-11-2.09-3.68-4.33-7.27-6.46-10.92a89.35,89.35,0,0,1-5.63-11,103.63,103.63,0,0,1-3.81-12.7c-2.36-8.76-4.95-17.63-4.6-26.8a28.67,28.67,0,0,1,1-5.34,11.11,11.11,0,0,1,2-4.86c2.08-2.43-1.44-6-3.53-3.53Z" transform="translate(-222.5 -53.82)" style="fill:#37378a"/><path d="M599.25,428.08c-24.93,10.2-52.51,7.43-78.12,1.46a297.76,297.76,0,0,1-75.91-29.08,323.38,323.38,0,0,1-39.39-25.69,2.51,2.51,0,0,0-3.42.89,2.56,2.56,0,0,0,.9,3.42,314.39,314.39,0,0,0,72.92,41.55,297.12,297.12,0,0,0,39.7,12.8c13.06,3.22,26.4,5.7,39.86,6.34,15.19.72,30.64-1.08,44.79-6.86a2.59,2.59,0,0,0,1.75-3.08,2.53,2.53,0,0,0-3.08-1.75Z" transform="translate(-222.5 -53.82)" style="fill:#3700b3"/><path d="M400.49,376.63q3,31.88,7.11,63.64t9.17,63.55q2.88,17.82,6.07,35.58a2.53,2.53,0,0,0,3.07,1.75,2.56,2.56,0,0,0,1.75-3.08q-5.64-31.38-10.27-63-4.61-31.35-8.18-62.83-2-17.81-3.72-35.66a2.57,2.57,0,0,0-2.5-2.5,2.52,2.52,0,0,0-2.5,2.5Z" transform="translate(-222.5 -53.82)" style="fill:#3700b3"/><path d="M424.23,536.53l-34.16-.85c-3.22-.08-3.22,4.92,0,5l34.16.85c3.22.08,3.22-4.92,0-5Z" transform="translate(-222.5 -53.82)" style="fill:#3700b3"/><path d="M393,538q-4-36.08-8.89-72.06-4.8-35.64-10.37-71.18-3.15-20.1-6.56-40.15a2.5,2.5,0,1,0-4.82,1.33q6,35.46,11.26,71.05,5.2,35.37,9.63,70.86Q385.73,517.86,388,538a2.57,2.57,0,0,0,2.5,2.5A2.52,2.52,0,0,0,393,538Z" transform="translate(-222.5 -53.82)" style="fill:#3700b3"/><path d="M362.37,353.13c-5.48,11.16-9.37,23-13.5,34.7q-6.33,18-12.85,35.9-13,35.83-26.76,71.41-7.75,20.08-15.71,40.08a2.52,2.52,0,0,0,1.74,3.08,2.56,2.56,0,0,0,3.08-1.75q14.1-35.43,27.53-71.12,13.34-35.46,26-71.17c4.6-13,8.72-26.23,14.8-38.6a2.55,2.55,0,0,0-.9-3.42,2.52,2.52,0,0,0-3.42.89Z" transform="translate(-222.5 -53.82)" style="fill:#3700b3"/><path d="M296,533.43c-11.2-.83-22.41.41-33.62,0-3.21-.11-3.21,4.89,0,5,11.21.42,22.42-.82,33.62,0a2.52,2.52,0,0,0,2.5-2.5,2.55,2.55,0,0,0-2.5-2.5Z" transform="translate(-222.5 -53.82)" style="fill:#3700b3"/><path d="M338.19,322.16q-16.56,41.49-33.11,83c-10.86,27.32-21.93,54.64-31.63,82.4a363.52,363.52,0,0,0-13.24,46.32,2.56,2.56,0,0,0,1.74,3.08,2.53,2.53,0,0,0,3.08-1.75c5.83-28.23,16.22-55.23,26.56-82,10.71-27.79,21.79-55.43,32.84-83.09L343,323.49a2.52,2.52,0,0,0-1.75-3.07,2.54,2.54,0,0,0-3.07,1.74Z" transform="translate(-222.5 -53.82)" style="fill:#3700b3"/><path d="M341.54,318.56a394,394,0,0,1-36.11-37.88,405.92,405.92,0,0,1-30.84-42.29,351.71,351.71,0,0,1-25.34-46.31A181.86,181.86,0,0,1,240.58,168c-2.45-8.73-3.83-17.62-5.69-26.47-3.56-16.89-9.09-34-5.64-51.37A65.31,65.31,0,0,1,231,83.29c1-3.08-3.86-4.4-4.82-1.33a69.32,69.32,0,0,0-2.71,27.31c.83,8.88,2.93,17.54,4.93,26.21,2.05,8.87,3.39,17.89,5.5,26.75a178.62,178.62,0,0,0,7.93,25c6.64,16.67,15.4,32.52,24.76,47.79a417.57,417.57,0,0,0,30.63,43.49,393.51,393.51,0,0,0,36,39.14q2.36,2.24,4.75,4.43c2.37,2.17,5.91-1.35,3.53-3.54Z" transform="translate(-222.5 -53.82)" style="fill:#3700b3"/><path d="M234.56,64.88A25.2,25.2,0,0,0,232,67.35a1.93,1.93,0,0,0-.51.81,2.58,2.58,0,0,0,.51,2.73,2.52,2.52,0,0,0,1.77.73l.67-.09a2.5,2.5,0,0,0,1.1-.64,24.07,24.07,0,0,1,2.58-2.47,1.85,1.85,0,0,0,.52-.81,2.23,2.23,0,0,0,0-1.93,1.82,1.82,0,0,0-.52-.8,2.48,2.48,0,0,0-1.76-.73l-.67.09a2.5,2.5,0,0,0-1.1.64Z" transform="translate(-222.5 -53.82)" style="fill:#37378a"/><path d="M323.08,214.89a119.08,119.08,0,0,1-8.28-10.82c-2.59-3.83-4.79-7.86-7.16-11.82-1.65-2.76-6-.25-4.32,2.52,2.44,4.09,4.72,8.24,7.4,12.17a132.55,132.55,0,0,0,8.82,11.49,2.54,2.54,0,0,0,3.54,0,2.56,2.56,0,0,0,0-3.54Z" transform="translate(-222.5 -53.82)" style="fill:#a1d4d1"/><path d="M605.78,430.23c12.17-3.49,14.84-16.72,14.08-27.83-1-14.54-6.93-28-14-40.54-4.59-8.11-9.72-15.9-14.77-23.72q-7.89-12.21-16.28-24.09c-11.25-15.91-23.12-31.37-35.41-46.47-25.1-30.84-51.58-60.67-79.31-89.15a323.6,323.6,0,0,0-41.79-36.21c-14.9-10.83-30.48-20.68-46-30.59-16.78-10.71-33.6-21.33-51-31-16.48-9.16-33.1-18.84-51.17-24.55a38.32,38.32,0,0,0-14.48-2c-3.19.24-3.22,5.25,0,5,9.34-.72,18.78,3.48,27.15,7.17,8.61,3.8,16.91,8.23,25.15,12.75,17,9.33,33.7,19.07,50.06,29.45,30.17,19.15,61.34,37.83,87.44,62.46,13.92,13.13,26.89,27.41,39.76,41.56q19.72,21.67,38.59,44.11C536,271,547.83,285.8,559.14,301s22,30.92,32.26,46.88c8.73,13.57,17.89,27.86,21.75,43.72A59.72,59.72,0,0,1,615,407.83c-.18,4.84-1.14,10.29-4.53,14a12.61,12.61,0,0,1-6,3.6c-3.09.89-1.78,5.72,1.33,4.82Z" transform="translate(-222.5 -53.82)" style="fill:#03dac5"/><path d="M254.38,56C241.84,54.78,234,66.65,232.64,77.81c-.85,7.19,1.21,14.7,3.73,21.37,2.9,7.68,6.81,14.92,10.75,22.11,4.66,8.49,9.5,16.83,14.86,24.89l3.93-3a43.48,43.48,0,0,1-8.33-14.73L253,130.34a487.94,487.94,0,0,0,47.39,68.77q7.64,9.28,15.73,18.18c2.22,2.44,5.44-1.07,3.53-3.54A136.51,136.51,0,0,0,299.8,193c-2-1.69-5.73.58-3.92,3a778.69,778.69,0,0,0,49.27,60.39Q371,285,399.53,310.88q28.88,26.21,60.26,49.41a649.29,649.29,0,0,0,64.29,42.54c21.2,12.13,43.9,22.7,68,27.24a39.49,39.49,0,0,0,9.64.82c3.19-.19,3.21-5.19,0-5-6.08.36-12.26-1.33-18.09-2.84a178.28,178.28,0,0,1-17.53-5.54,252.72,252.72,0,0,1-32.84-15.25c-22.24-12.12-43.42-26.22-63.9-41.08q-31-22.51-59.78-47.94-28.58-25.33-54.57-53.41a765.4,765.4,0,0,1-49.17-58.71q-2.86-3.81-5.69-7.65l-3.93,3a137.56,137.56,0,0,1,19.86,20.79l3.53-3.54A482.43,482.43,0,0,1,269.4,147.9q-6.28-9.89-12.07-20.08c-1.38-2.42-5.48-.81-4.57,1.93a50.11,50.11,0,0,0,9.61,16.94c1.85,2.14,5.5-.67,3.93-3q-6.6-9.91-12.36-20.33c-3.61-6.55-7.31-13.09-10.41-19.9-5-10.89-9.27-24.25-2.48-35.31,3-4.81,7.61-7.7,13.33-7.15,3.21.3,3.18-4.7,0-5Z" transform="translate(-222.5 -53.82)" style="fill:#03dac5"/><path d="M314.57,203.42a61.1,61.1,0,0,1-11.95-17.63c-.8-1.77-3.43-1.47-4.32,0-1.2,2,0,3.81,1.24,5.39a31.06,31.06,0,0,0,3.25,3.44,2.55,2.55,0,0,0,3.53,0,2.53,2.53,0,0,0,0-3.54c-.76-.7-1.5-1.43-2.19-2.2q-.5-.54-1-1.11c-.06-.09-.15-.18-.21-.27a2.16,2.16,0,0,1-.24-.35c-.26-.5-.3-.11-.1,1.17H298.3A65.15,65.15,0,0,0,311,207a2.5,2.5,0,0,0,3.54-3.54Z" transform="translate(-222.5 -53.82)" style="fill:#a1d4d1"/><path d="M242.58,82.65c-.16-1.3-.32-2.6-.35-3.91a18,18,0,0,1,.07-1.94c0-.19,0-.33,0-.06,0-.16,0-.32.09-.48a8.29,8.29,0,0,1,.21-.86c.07-.24.16-.47.25-.7s-.2.39,0,.09c.06-.11.1-.23.16-.34s.24-.43.37-.64.15-.2.21-.3c.18-.29-.28.31-.05.07s.32-.36.49-.53l.27-.25c.22-.24-.36.24-.09.06s.4-.27.61-.39.4-.25.11-.07.14,0,.21-.07a2.5,2.5,0,1,0-1.33-4.82,9.6,9.6,0,0,0-5.82,6c-1.08,2.9-.75,6.11-.38,9.11a2.57,2.57,0,0,0,2.5,2.5c1.22-.05,2.67-1.11,2.5-2.5Z" transform="translate(-222.5 -53.82)" style="fill:#a1d4d1"/><path d="M256.4,59c-5.07.7-10.31,1.75-13.94,5.69a18,18,0,0,0-3.78,6.57c-.55,1.66-.79,3.64,1,4.68a13.4,13.4,0,0,0,4.24,1.15,2.5,2.5,0,0,0,1.33-4.82,20.6,20.6,0,0,1-3.64-.9l1.1.64-.16-.13.65,1.1-.07-.24v1.33a10.34,10.34,0,0,1,1.75-4.34,11.39,11.39,0,0,1,2.84-3,13,13,0,0,1,4.55-1.92,48.34,48.34,0,0,1,5.48-1,2.5,2.5,0,0,0,1.74-3.07A2.57,2.57,0,0,0,256.4,59Z" transform="translate(-222.5 -53.82)" style="fill:#a1d4d1"/><line x1="294.28" y1="97.66" x2="190.66" y2="197.95" style="fill:none;stroke:#51bab4;stroke-miterlimit:10"/><line x1="288.23" y1="93.43" x2="107.5" y2="95.84" style="fill:none;stroke:#51bab4;stroke-miterlimit:10"/><line x1="285.21" y1="89.8" x2="67.6" y2="40.23" style="fill:none;stroke:#51bab4;stroke-miterlimit:10"/><line x1="299.11" y1="102.49" x2="298.51" y2="273.56" style="fill:none;stroke:#51bab4;stroke-miterlimit:10"/><line x1="303.95" y1="109.75" x2="352.31" y2="306.2" style="fill:none;stroke:#51bab4;stroke-miterlimit:10"/><path d="M257.6,53.82c-7.17-.11-14.68,2.74-19.29,8.38a27.51,27.51,0,0,0-5.14,10.71A58.44,58.44,0,0,0,232,78.77c-.32,2.09-.4,4.16.75,6,1.69,2.73,6,.22,4.32-2.53-.67-1.08-.18-2.65,0-3.82.31-1.69.66-3.38,1.12-5a20.58,20.58,0,0,1,4.12-8.25,19.92,19.92,0,0,1,15.27-6.34c3.22.06,3.22-4.94,0-5Z" transform="translate(-222.5 -53.82)" style="fill:#03dac5"/><path d="M231.71,82A50.85,50.85,0,0,0,237,99.58a2.5,2.5,0,1,0,4.32-2.52A45.49,45.49,0,0,1,236.71,82a2.56,2.56,0,0,0-2.5-2.5,2.53,2.53,0,0,0-2.5,2.5Z" transform="translate(-222.5 -53.82)" style="fill:#51bab4"/><path d="M511.53,151.27a1228.82,1228.82,0,0,0-99.8,92.59c-5.36,5.57,3.11,14.06,8.49,8.49a1227.29,1227.29,0,0,1,99.8-92.6c5.94-4.93-2.59-13.38-8.49-8.48Z" transform="translate(-222.5 -53.82)" style="fill:#03dac5"/><path d="M510.86,142.92q-88.73-.66-177.42,2.86c-7.7.3-7.74,12.31,0,12q88.67-3.51,177.42-2.86c7.73.05,7.73-11.95,0-12Z" transform="translate(-222.5 -53.82)" style="fill:#03dac5"/><path d="M509.52,139.17Q402.44,113.66,294.61,91.43c-7.53-1.55-10.76,10-3.19,11.58q107.82,22.21,214.91,47.74c7.51,1.78,10.71-9.78,3.19-11.58Z" transform="translate(-222.5 -53.82)" style="fill:#03dac5"/><path d="M516.59,159.49q-3.23,82.8-3.19,165.68c0,7.72,12,7.74,12,0q0-82.86,3.19-165.68c.31-7.72-11.7-7.71-12,0Z" transform="translate(-222.5 -53.82)" style="fill:#03dac5"/><path d="M519.18,162.94q22.58,98.61,50,196c2.09,7.42,13.67,4.27,11.57-3.19q-27.42-97.36-50-196c-1.72-7.53-13.29-4.34-11.57,3.19Z" transform="translate(-222.5 -53.82)" style="fill:#03dac5"/><path d="M520.51,121.36a10.88,10.88,0,0,0-15.68,10.07c-.05,8.34,6.12,16.68,11.7,22.37C522,159.34,529.66,166,538,165s16.23-8.89,10.16-16.73c-2-2.59-6.38-2.07-8.49,0-2.56,2.5-2,5.93,0,8.48l.56.72-1.76-4.24q1.74-2.53-.63-.6l-1.36.55c-1.44.07-3.08-1.06-4.21-1.78a41.81,41.81,0,0,1-7.22-6.06,37,37,0,0,1-5.7-7.4,25.86,25.86,0,0,1-1.75-3.49c-1.25-3.2-.37-1.41-3.11-2.69,7,3.24,13.06-7.1,6.06-10.37Z" transform="translate(-222.5 -53.82)" style="fill:#03dac5"/><path d="M548.81,121.87a90.93,90.93,0,0,0-6.73-6.44c-2.25-1.78-6-3.71-8.76-1.93-1.51,1-1.83,2.94-2,4.58a12.84,12.84,0,0,0,.54,4.44,19.11,19.11,0,0,0,4.8,7.66,60.43,60.43,0,0,0,6.74,5.84c2.27,1.73,4.95,3.22,7.87,3.29s5.8-1.63,6.29-4.68-1.47-6-3.58-8.13c-2.48-2.54-5.29-4.81-8-7.15s-5.37-4.42-8.93-4.32a2.57,2.57,0,0,0-2.41,1.83c-.71,2.33.6,4.67,1.72,6.64a30.62,30.62,0,0,0,4,5.43c3,3.3,7.28,7,12.05,5.92a2.53,2.53,0,0,0,1.5-3.68c-4.24-6.37-9.86-11.55-15.52-16.63l-1.77,4.27c3.48.45,6.42,3.22,8.89,5.48s5.14,4.87,5.85,8.39a2.52,2.52,0,0,0,3.07,1.74,2.55,2.55,0,0,0,1.75-3.07c-.89-4.45-4.14-7.86-7.38-10.82-3.56-3.23-7.29-6.08-12.18-6.72-2.17-.29-3.27,2.91-1.77,4.26,5.33,4.79,10.75,9.63,14.74,15.63l1.49-3.68c-1.29.29-2.68-.68-3.67-1.4a25.64,25.64,0,0,1-6.26-6.89c-.42-.7-.82-1.41-1.18-2.14-.13-.26-.27-.53-.38-.81a4.67,4.67,0,0,1-.18-.64l.08,0L537.14,120c1.9,0,3.48,1.2,4.87,2.4,1.86,1.6,3.69,3.25,5.54,4.88a22.16,22.16,0,0,1,4.56,4.67,3.81,3.81,0,0,1,.53,1.16c0,.15.1.58.11.46,0,.18-.3.59,0,.37a1.26,1.26,0,0,1-.91.35,5.18,5.18,0,0,0-.72,0A7.9,7.9,0,0,1,550,134a11.6,11.6,0,0,1-2.83-1.49,49.33,49.33,0,0,1-4.76-3.9c-3-2.64-6.46-6.2-6-10.56,0-.18-.22,1.14.06-.36a4.05,4.05,0,0,1,.12-.5c.19-.59-.15-.37-1,.67.44.13.76,0,1.23.12a7.28,7.28,0,0,1,2.44,1.51c2.13,1.84,4.07,3.92,6.08,5.89,2.3,2.25,5.84-1.28,3.53-3.54Z" transform="translate(-222.5 -53.82)" style="fill:#03dac5"/><path d="M530.11,142.42c9.65,0,9.67-15,0-15s-9.67,15,0,15Z" transform="translate(-222.5 -53.82)" style="fill:#a1d4d1"/><path d="M532,115.57l-17.53,14.58a2.53,2.53,0,0,0-.39,3c4.79,9.22,10.79,18.66,21.19,22.08a2.45,2.45,0,0,0,2.44-.64,71.15,71.15,0,0,1,14.63-13.08,2.52,2.52,0,0,0-1.26-4.66c-3.86-.4-6.93-4.17-9-7.09a39.42,39.42,0,0,1-5.9-12,2.53,2.53,0,0,0-4.57-.6C530,120,527.33,122,524.84,124l-8.66,7a2.51,2.51,0,0,0,.51,3.92c4,1.91,5.9,6.14,8.17,9.7,2.71,4.28,7.09,9.67,12.63,6.19a37.72,37.72,0,0,0,6.83-6.17c1-1.08,2.33-2.2,2.34-3.8,0-1.84-1.42-2.45-2.62-3.47-3.46-3-4.79-7.76-7.14-11.52-.79-1.28-1.69-2.81-3.2-3.31-1.86-.62-3.43.52-4.91,1.49a79.41,79.41,0,0,0-8.38,6.34,2.53,2.53,0,0,0,0,3.53l10,11.08a6.72,6.72,0,0,0,2.67,2.21,4.59,4.59,0,0,0,3.71-.53,16.71,16.71,0,0,0,5.11-4.16,2.54,2.54,0,0,0-.51-3.93A36.19,36.19,0,0,1,535.9,135a2.53,2.53,0,0,0-2.73-.52,2.45,2.45,0,0,0-1.54,2.28,10,10,0,0,0,.82,2.88c0,.13.27.62.27.62s.06,0,0,.29q-.16-.57.78-.81l3.07,1.74a36.51,36.51,0,0,0-6.37-13.09,2.58,2.58,0,0,0-3.42-.89,2.51,2.51,0,0,0-.9,3.42,32.86,32.86,0,0,1,5.87,11.89,2.53,2.53,0,0,0,3.08,1.75,4.15,4.15,0,0,0,2.87-3.85,5.22,5.22,0,0,0-.32-2.11,9.82,9.82,0,0,1-.77-1.84l-4.26,1.77a42.72,42.72,0,0,0,6.46,4.35l-.51-3.93a13.09,13.09,0,0,1-3.55,3.08l-.73.4.91.16c0-.09-.75-.82-.88-1l-2.13-2.36-8-8.9v3.53a72.34,72.34,0,0,1,7-5.31,7.31,7.31,0,0,0,1.69-1.09c.42-.53-.84-.31-.84-.32,0,.18.41.6.5.74.66,1,1.24,2.07,1.8,3.14,1.08,2.07,2.06,4.21,3.34,6.17a19.69,19.69,0,0,0,5.28,5.33l-.89-.9.19.29-.34-1.26v.29l.34-1.26a10.79,10.79,0,0,1-1.54,1.72c-.65.68-1.32,1.34-2,2a20.9,20.9,0,0,1-3.67,3.17c-2.1,1.25-4-2.13-5-3.63-3-4.5-5.37-9.9-10.53-12.37l.51,3.93,9-7.3c2.71-2.2,5.38-4.43,7.17-7.49l-4.57-.59a43.57,43.57,0,0,0,7.17,14.23c3.21,4.19,7.11,8,12.59,8.54l-1.26-4.65a75.42,75.42,0,0,0-15.65,13.86l2.43-.65c-9-3-14.08-11.85-18.2-19.79l-.4,3,17.53-14.57a2.52,2.52,0,0,0,0-3.54,2.54,2.54,0,0,0-3.53,0Z" transform="translate(-222.5 -53.82)" style="fill:#a1d4d1"/><path d="M552.35,134.32c.09.34.16.68.24,1s0-.23,0,.06c0,0,0,.53,0,.52s.13-.55,0-.13a2.5,2.5,0,0,1-.07.26c0,.13,0,.11,0-.06s.07-.18,0,0l.18-.23c-.31.34.29-.15,0,0s.54-.13,0,0c.18,0,.43,0,.12,0-.59-.05.49.18-.07,0a1.39,1.39,0,0,1-.36-.12c.39.3.11,0,0-.06s-.29-.17-.43-.26-.55-.4-.82-.61l-.36-.26c.38.29,0,0-.1-.09-.29-.22-.57-.45-.86-.69-.53-.44-1.07-.89-1.59-1.35-1.1-1-2.17-2-3.2-3a2.5,2.5,0,1,0-3.53,3.53q1.89,1.93,3.94,3.68c.7.6,1.42,1.18,2.14,1.74A18,18,0,0,0,550,139.9c2,1.1,4.6,1.19,6.27-.58s1.48-4.17.94-6.33a2.52,2.52,0,0,0-3.07-1.75,2.56,2.56,0,0,0-1.75,3.08Z" transform="translate(-222.5 -53.82)" style="fill:#03dac5"/><path d="M545,129.23c-1.9-2.13-3.83-4.22-5.69-6.38-.4-.47-.8-1-1.19-1.44-.19-.24-.22-.28-.1-.12l-.32-.43c-.16-.21-.31-.43-.47-.65-.4-.58-.78-1.17-1.13-1.79-.13-.23-.26-.46-.38-.7s-.35-.49-.29-.63a1.27,1.27,0,0,1,0,.34c-.33.92-1.09,1.19-2.27.81l-.17-.12a3.18,3.18,0,0,1,.3.33c.48.56,1,1.13,1.44,1.69.85,1,1.72,1.94,2.61,2.87,1.92,2,3.93,3.93,6,5.75a2.5,2.5,0,1,0,3.54-3.53q-2.88-2.51-5.54-5.25-1.35-1.4-2.64-2.85a21.1,21.1,0,0,0-2.61-2.89,3.38,3.38,0,0,0-4.68.39c-1.32,1.56-1,3.42-.23,5.14a29.71,29.71,0,0,0,4.36,6.31c1.93,2.27,4,4.46,5.94,6.68a2.52,2.52,0,0,0,3.54,0,2.55,2.55,0,0,0,0-3.53Z" transform="translate(-222.5 -53.82)" style="fill:#03dac5"/><path d="M229.36,76.12c-.36,16.45,5.94,32,13.32,46.4,7.29,14.21,15.39,28.05,23.84,41.6s17.37,26.75,26.76,39.63,19.23,25.43,29.51,37.6,21,24,32.16,35.39q2.08,2.14,4.2,4.26c2.27,2.28,5.81-1.25,3.53-3.54Q346,260.66,330.5,242.7q-15.33-17.79-29.36-36.65t-26.76-38.83q-12.74-20-24-40.85c-7.42-13.73-14.67-28.42-15.85-44.24q-.22-3-.15-6c.07-3.22-4.93-3.22-5,0Z" transform="translate(-222.5 -53.82)" style="fill:#3700b3"/><path d="M358.53,280.33a369,369,0,0,0,39.89,38c14.24,11.86,29,23.09,43.72,34.34,15.22,11.63,30.56,23.12,46.48,33.79a389.5,389.5,0,0,0,48.09,27.89,253.73,253.73,0,0,0,51.44,18.58q3.3.78,6.61,1.45a2.58,2.58,0,0,0,3.08-1.75,2.52,2.52,0,0,0-1.75-3.07A239.16,239.16,0,0,1,545,412.69a365.62,365.62,0,0,1-48.09-26.78c-15.92-10.36-31.23-21.63-46.36-33.11-14.67-11.15-29.36-22.31-43.63-34a401.32,401.32,0,0,1-40.23-37c-1.55-1.67-3.09-3.35-4.6-5.06-2.14-2.41-5.66,1.14-3.53,3.54Z" transform="translate(-222.5 -53.82)" style="fill:#3700b3"/><path d="M233,66.27a35.37,35.37,0,0,0-8.78,16,56.33,56.33,0,0,0-1.17,10.2l-.57,10.63c-.17,3.21,4.83,3.2,5,0l.53-9.91A54.45,54.45,0,0,1,229,84a30.27,30.27,0,0,1,7.58-14.21c2.22-2.33-1.31-5.87-3.53-3.54Z" transform="translate(-222.5 -53.82)" style="fill:#37378a"/><path d="M409.07,313.49q-17.46-14.58-33.85-30.39t-31.73-32.9q-15.19-16.92-29.16-34.91t-26.44-36.76q-12.67-19-24-38.92c-.92-1.62-1.83-3.25-2.73-4.87-1.56-2.81-5.88-.3-4.32,2.52q11.1,20,23.62,39.13t26.37,37.33Q320.79,232,336,249.25t31.42,33.19q16.29,16,33.72,30.85c1.47,1.26,2.95,2.5,4.43,3.74a2.58,2.58,0,0,0,3.54,0,2.53,2.53,0,0,0,0-3.54Z" transform="translate(-222.5 -53.82)" style="fill:#03dac5"/><path d="M238.53,62.65c-9.14,6.87-7.07,20.51-4.15,30,1.78,5.76,4.14,11.35,6.48,16.89a129.2,129.2,0,0,0,7.83,16.2c3.49,5.83,7.51,11.37,11.34,17a2.57,2.57,0,0,0,3.42.9,2.52,2.52,0,0,0,.9-3.42c-3.17-4.65-6.42-9.25-9.47-14A106.45,106.45,0,0,1,247,111.26c-2.28-5.17-4.47-10.4-6.39-15.72A54.11,54.11,0,0,1,237,79.65c-.19-4.3.33-9.86,4.08-12.68a2.58,2.58,0,0,0,.9-3.42,2.52,2.52,0,0,0-3.42-.9Z" transform="translate(-222.5 -53.82)" style="fill:#03dac5"/><path d="M605.07,425.2c-1.37.22-2.47.39-3.71.53a22.68,22.68,0,0,1-3.59.29s-.79-.08-.38,0c-.31-.05-.61-.12-.91-.18-.56-.13-1.12-.28-1.68-.42a11.45,11.45,0,0,0-4-.41,2.55,2.55,0,0,0-2.5,2.5c.05,1.22,1.11,2.66,2.5,2.5a7.17,7.17,0,0,1,1-.06s.79.08.37,0a18,18,0,0,1,1.8.4A17.49,17.49,0,0,0,598,431a29.91,29.91,0,0,0,3.9-.36c1.49-.19,3-.4,4.46-.64a2.5,2.5,0,0,0,1.74-3.08,2.56,2.56,0,0,0-3.07-1.74Z" transform="translate(-222.5 -53.82)" style="fill:#03dac5"/><path d="M591.26,424.88h-.52a1.74,1.74,0,0,0-1,.21,2.28,2.28,0,0,0-1.33,1.32,2,2,0,0,0-.21,1l.09.66a2.5,2.5,0,0,0,.64,1.1l.51.39a2.54,2.54,0,0,0,1.26.35h.52a2.83,2.83,0,0,0,1.77-.74,2,2,0,0,0,.52-.8,2,2,0,0,0,.21-1l-.09-.67a2.5,2.5,0,0,0-.64-1.1l-.51-.39a2.43,2.43,0,0,0-1.26-.34Z" transform="translate(-222.5 -53.82)" style="fill:#03dac5"/><path d="M590.94,424.8a6.81,6.81,0,0,0-1,0,1.88,1.88,0,0,0-1,.21,1.85,1.85,0,0,0-.8.52,1.82,1.82,0,0,0-.52.8,1.9,1.9,0,0,0-.22,1l.09.66a2.46,2.46,0,0,0,.65,1.1l.5.4a2.53,2.53,0,0,0,1.26.34,6.81,6.81,0,0,1,1,0,1.88,1.88,0,0,0,1-.22,2.16,2.16,0,0,0,1.32-1.32,1.88,1.88,0,0,0,.22-1l-.09-.67a2.5,2.5,0,0,0-.64-1.1l-.51-.39a2.43,2.43,0,0,0-1.26-.34Z" transform="translate(-222.5 -53.82)" style="fill:#03dac5"/><path d="M603.59,425.63a10.46,10.46,0,0,1-1.09.21l.66-.09a9.09,9.09,0,0,1-2.15,0,2.83,2.83,0,0,0-1.77.73,2,2,0,0,0-.52.81,1.88,1.88,0,0,0-.21,1,2.53,2.53,0,0,0,.73,1.77l.51.39a2.43,2.43,0,0,0,1.26.34,9.21,9.21,0,0,0,1.66,0,13.34,13.34,0,0,0,2.25-.36,2.6,2.6,0,0,0,1.49-1.15,2,2,0,0,0,.3-.93,1.9,1.9,0,0,0-.05-1,2.49,2.49,0,0,0-1.15-1.49,2.57,2.57,0,0,0-1.92-.25Z" transform="translate(-222.5 -53.82)" style="fill:#03dac5"/><path d="M585.06,432.1c2.61.65,5.19,1.41,7.72,2.28a2.5,2.5,0,1,0,1.33-4.82q-3.81-1.31-7.72-2.28a2.5,2.5,0,0,0-1.33,4.82Z" transform="translate(-222.5 -53.82)" style="fill:#3700b3"/><path d="M599.66,431.15c-.48,0-1,0-1.43-.11a10.68,10.68,0,0,1-1.2-.22,14.55,14.55,0,0,1-2.65-.91,2,2,0,0,0-.93,0,3.59,3.59,0,0,0-1.11.35c-.2.11-.5.25-.58.48s.09.28.25.35a14.88,14.88,0,0,0,5.79,1.32,3.38,3.38,0,0,0,2.05-.55c.13-.1.38-.26.33-.47s-.37-.24-.52-.24Z" transform="translate(-222.5 -53.82)" style="fill:#3700b3"/><path d="M592.48,431.35a40.33,40.33,0,0,0,6.83,1.09,2.29,2.29,0,0,0,1.91-.79c.38-.59-.33-.82-.78-.85l-.87-.08s-.39,0-.17,0l-.37,0c-.54-.06-1.07-.14-1.61-.22-1.06-.18-2.12-.4-3.16-.67a2.45,2.45,0,0,0-2,.55c-.45.44-.34.87.27,1Z" transform="translate(-222.5 -53.82)" style="fill:#3700b3"/><path d="M595,430.92v0l-.73.72,0,0-.77.2c-.31,0-.37,0-.19,0l.15,0,.28.06.61.15,1.18.3-.1,0,.14,0,.33.09.57.15,1.22.33a2,2,0,0,0,1.11,0,1.8,1.8,0,0,0,.94-.59,1,1,0,0,0,.22-.86,1,1,0,0,0-.62-.64c-1-.29-2.11-.57-3.16-.84l-1.42-.35a3.35,3.35,0,0,0-1-.15,1.82,1.82,0,0,0-1.61,1,.89.89,0,0,0,.08.85,1.26,1.26,0,0,0,.83.46,1.83,1.83,0,0,0,1.88-.91Z" transform="translate(-222.5 -53.82)" style="fill:#3700b3"/><path d="M253,120.75A72.42,72.42,0,0,0,276.17,151c3.23,2.49,8.37.47,10.26-2.69,2.3-3.85.5-7.81-2.69-10.26a53.13,53.13,0,0,1-16.32-21.25c-1.56-3.72-5-6.43-9.23-5.24-3.52,1-6.82,5.46-5.24,9.23Z" transform="translate(-222.5 -53.82)" style="fill:#a1d4d1"/><path d="M291.41,180a235.1,235.1,0,0,0,18.44,25.4c2.59,3.11,7.93,2.67,10.61,0,3.08-3.09,2.59-7.49,0-10.61a205.22,205.22,0,0,1-16.1-22.36c-5.11-8.17-18.09-.65-12.95,7.57Z" transform="translate(-222.5 -53.82)" style="fill:#a1d4d1"/><path d="M307.06,201.93a116.25,116.25,0,0,0,11.49,15.71L329.16,207a10.8,10.8,0,0,1-1-1.56c-4.78-8.39-17.74-.84-12.95,7.57a22.34,22.34,0,0,0,3.38,4.6,7.62,7.62,0,0,0,10.61,0c3-3,2.66-7.54,0-10.61A91.17,91.17,0,0,1,320,194.36c-5-8.25-18-.72-13,7.57Z" transform="translate(-222.5 -53.82)" style="fill:#a1d4d1"/><path d="M603.78,422a5.36,5.36,0,0,0,1.27.22,6.85,6.85,0,0,0,1.28.13l2-.27.14,0,1-.43a3.6,3.6,0,0,0,1-.45l-10.26-10.27a2.54,2.54,0,0,1-.23.34l1.18-1.52a3.63,3.63,0,0,1-.49.47l1.52-1.18a3.42,3.42,0,0,1-.59.33l1.79-.75a2.88,2.88,0,0,1-.64.17l2-.27a1.82,1.82,0,0,1-.4,0,7.81,7.81,0,0,0-5.31,2.2,8.34,8.34,0,0,0-2.19,5.3,7.57,7.57,0,0,0,2.19,5.31,7.78,7.78,0,0,0,5.31,2.19,10.32,10.32,0,0,0,5.14-1.36,10,10,0,0,0,1-.77,10.54,10.54,0,0,0,1-.81,8.53,8.53,0,0,0,.82-1,12.45,12.45,0,0,0,.81-1.1l.76-1.79a5.73,5.73,0,0,0,.13-3,3.7,3.7,0,0,0-.51-1.89,5.6,5.6,0,0,0-1.55-2.41,8.91,8.91,0,0,0-3.31-1.93,8.37,8.37,0,0,0-5.78.75l-.12.08,1.79-.76a1.07,1.07,0,0,1-.27.09l2-.27a.71.71,0,0,1-.29,0l2,.27a.77.77,0,0,1-.27-.08,5.64,5.64,0,0,0-3-.13,5.51,5.51,0,0,0-2.79.89,8.46,8.46,0,0,0-3.45,4.48,7.63,7.63,0,0,0,.76,5.78l1.17,1.51a7.46,7.46,0,0,0,3.31,1.93Z" transform="translate(-222.5 -53.82)" style="fill:#a1d4d1"/><path d="M607.15,420c9.66,0,9.67-15,0-15s-9.66,15,0,15Z" transform="translate(-222.5 -53.82)" style="fill:#a1d4d1"/><path d="M603.77,421.89a8.09,8.09,0,0,0,3.31-.46c4.32-1.35,1.23-.65,1.32-.59l.8-.16a5.61,5.61,0,0,0,2.55-1.34,8.28,8.28,0,0,0,2.88-4.3c1.09-3.74.48-8.46-.68-12.08s-5.26-6.52-9.23-5.24c-3.73,1.21-6.52,5.23-5.24,9.23.18.54.34,1.09.47,1.64.09.39.14,1.79.11.37,0,.45.05.91.05,1.36,0,1.61-.66,2.06.62-.66l4.48-3.44a10.53,10.53,0,0,0-2.14.71,13.12,13.12,0,0,0-1.33.59,5.79,5.79,0,0,1,2-.63c-3.91-.45-7.67,3.77-7.5,7.5.2,4.44,3.31,7,7.5,7.5Z" transform="translate(-222.5 -53.82)" style="fill:#a1d4d1"/><path d="M263,110.71a60,60,0,0,1-9-16.69,61,61,0,0,1-2.39-9.11c-.48-2.62-1.16-5.81-.16-8.38.83-2.14,2.92-3,5-3.35A19.14,19.14,0,0,1,260,73c.59,0,1.17,0,1.75,0a2.7,2.7,0,0,1,.81,0c.14,0,.13,0,0-.09.09.17.18.34.26.52a8.54,8.54,0,0,1,1,3.9,11.5,11.5,0,0,1-1.47,4.26,48.94,48.94,0,0,0-3.58,8.94,42.5,42.5,0,0,0-.09,21.74c.81,3.11,5.63,1.79,4.82-1.33a37.29,37.29,0,0,1,.58-20.73c1.09-3.41,3.09-6.41,4.18-9.8a12.21,12.21,0,0,0-1.64-10.34c-1.92-2.78-6.51-2.34-9.48-2s-6.25,1.16-8.43,3.49c-2.39,2.55-3,6.05-2.72,9.43a55.92,55.92,0,0,0,2,10.66,63.8,63.8,0,0,0,10.7,21.58,2.58,2.58,0,0,0,3.42.9,2.53,2.53,0,0,0,.89-3.43Z" transform="translate(-222.5 -53.82)" style="fill:#03dac5"/><path d="M558.93,402.94a154.85,154.85,0,0,0,19.64,8.33,56.76,56.76,0,0,0,10.36,2.61c3.15.44,7,1,9.79-1,2.6-1.8,3.35-5,3.19-8-.14-2.67-.63-5.63-2.24-7.83a7.36,7.36,0,0,0-8.88-2.35c-2.92,1.11-5.45,2.88-8.5,3.71-6.88,1.88-14.24.75-21.16-.34a2.57,2.57,0,0,0-3.07,1.74,2.52,2.52,0,0,0,1.74,3.08c5.73.9,11.56,1.8,17.37,1.39a31.3,31.3,0,0,0,8.45-1.68,30.51,30.51,0,0,0,4-1.83,14.76,14.76,0,0,1,3.63-1.62c2.15-.46,2.89,1.53,3.29,3.28s.82,4.26-.18,5.83a2.57,2.57,0,0,1-2.15,1,21.42,21.42,0,0,1-4.45-.26,52.89,52.89,0,0,1-9-2.25,141.09,141.09,0,0,1-19.33-8.12c-2.86-1.44-5.4,2.87-2.52,4.32Z" transform="translate(-222.5 -53.82)" style="fill:#03dac5"/><path d="M222.61,102.47c-.36,3.69.45,7.38,1.25,11a2.52,2.52,0,0,0,3.07,1.75,2.56,2.56,0,0,0,1.75-3.08c-.37-1.67-.72-3.33-1-5,0-.19,0-.13,0,.17,0-.1,0-.2,0-.3s-.05-.47-.07-.7c0-.39-.06-.79-.08-1.19a20.32,20.32,0,0,1,.08-2.59,2.51,2.51,0,0,0-2.5-2.5,2.57,2.57,0,0,0-2.5,2.5Z" transform="translate(-222.5 -53.82)" style="fill:#37378a"/></svg>
